<svg xmlns="http://www.w3.org/2000/svg" width="84" height="20" viewBox="0 0 84 20" fill="none">
  <path d="M76.0125 0H79.2765C79.4205 0 79.5405 0.0479994 79.6605 0.168001L83.4045 3.912C83.5005 4.008 83.5005 4.104 83.3805 4.224L82.6845 4.92C82.5645 5.04 82.4445 5.04 82.3485 4.944L78.4125 0.984C77.9565 0.528 77.3565 0.528 76.9005 0.984L72.9165 4.944C72.8205 5.064 72.7245 5.04 72.6045 4.944L71.8845 4.224C71.7885 4.128 71.7885 4.008 71.8845 3.912L75.6285 0.168001C75.7485 0.0479994 75.8445 0 76.0125 0Z" fill="#D1D3D4"/>
  <path d="M60.3601 17.832H70.4641C70.6081 17.832 70.7041 17.928 70.7041 18.072V19.056C70.7041 19.2 70.6081 19.296 70.4641 19.296H60.3601C60.2161 19.296 60.1201 19.2 60.1201 19.056V18.072C60.1201 17.928 60.2161 17.832 60.3601 17.832Z" fill="#D1D3D4"/>
  <path d="M48.5242 17.832H58.6282C58.7722 17.832 58.8682 17.928 58.8682 18.072V19.056C58.8682 19.2 58.7722 19.296 58.6282 19.296H48.5242C48.3802 19.296 48.2842 19.2 48.2842 19.056V18.072C48.2842 17.928 48.3802 17.832 48.5242 17.832Z" fill="#D1D3D4"/>
  <path d="M36.6882 17.832H46.7922C46.9362 17.832 47.0322 17.928 47.0322 18.072V19.056C47.0322 19.2 46.9362 19.296 46.7922 19.296H36.6882C36.5442 19.296 36.4482 19.2 36.4482 19.056V18.072C36.4482 17.928 36.5442 17.832 36.6882 17.832Z" fill="#D1D3D4"/>
  <path d="M24.8523 17.832H34.9563C35.1003 17.832 35.1963 17.928 35.1963 18.072V19.056C35.1963 19.2 35.1003 19.296 34.9563 19.296H24.8523C24.7083 19.296 24.6123 19.2 24.6123 19.056V18.072C24.6123 17.928 24.7083 17.832 24.8523 17.832Z" fill="#D1D3D4"/>
  <path d="M13.0164 17.832H23.1204C23.2644 17.832 23.3604 17.928 23.3604 18.072V19.056C23.3604 19.2 23.2644 19.296 23.1204 19.296H13.0164C12.8724 19.296 12.7764 19.2 12.7764 19.056V18.072C12.7764 17.928 12.8724 17.832 13.0164 17.832Z" fill="#D1D3D4"/>
  <path d="M4.2 0H7.464C7.608 0 7.728 0.0479994 7.848 0.168001L11.592 3.912C11.688 4.008 11.688 4.104 11.568 4.224L10.872 4.92C10.752 5.04 10.632 5.04 10.536 4.944L6.6 0.984C6.144 0.528 5.544 0.528 5.088 0.984L1.104 4.944C1.008 5.064 0.912 5.04 0.792 4.944L0.072 4.224C-0.024 4.128 -0.024 4.008 0.072 3.912L3.816 0.168001C3.936 0.0479994 4.032 0 4.2 0Z" fill="#D1D3D4"/>
</svg>