<svg xmlns="http://www.w3.org/2000/svg" width="210" height="35" viewBox="0 0 210 35" fill="none">
  <rect width="210" height="35" rx="17.5" fill="#FD6A18"/>
  <path d="M133.063 30.0859L130.819 27.8419C130.599 27.6219 130.599 27.3579 130.819 27.1379L139.399 18.5579C140.015 17.9419 140.015 17.3259 139.399 16.7099L130.819 8.12987C130.599 7.90987 130.599 7.64587 130.819 7.42587L133.063 5.18187C133.327 4.91787 133.591 4.96187 133.811 5.18187L140.719 12.0899C140.983 12.3539 141.071 12.5739 141.071 12.9699V22.2979C141.071 22.6939 140.983 22.9139 140.719 23.1779L133.811 30.0859C133.591 30.3059 133.327 30.3499 133.063 30.0859ZM69.528 19.7459C69.22 19.7459 69 19.5259 69 19.2179V16.0059C69 15.6979 69.22 15.4779 69.528 15.4779H136.715C137.023 15.4779 137.243 15.6979 137.243 16.0059V19.2179C137.243 19.5259 137.023 19.7459 136.715 19.7459H69.528Z" fill="#1B1B1A"/>
</svg>