<svg xmlns="http://www.w3.org/2000/svg" width="7" height="9" viewBox="0 0 7 9" fill="none">
  <path d="M2.44001 8.48361C2.31159 8.48361 2.21527 8.45151 2.11896 8.35519L0.128422 6.36466C0.0321054 6.26834 0 6.17202 0 6.0436V3.41096C0 3.28254 0.0321054 3.18622 0.128422 3.0899L2.11896 1.09937C2.21527 1.00305 2.31159 0.970947 2.44001 0.970947H4.38239C4.51081 0.970947 4.60713 1.00305 4.70344 1.09937L6.69398 3.0899C6.79029 3.18622 6.8224 3.26648 6.8224 3.41096V5.99544C6.8224 6.13992 6.77424 6.22018 6.67793 6.3165L4.63923 8.35519C4.54292 8.45151 4.4466 8.48361 4.31818 8.48361H2.44001ZM2.03869 6.9265H3.93291L5.26529 5.56202V3.00964C5.26529 2.70464 5.08871 2.52806 4.78371 2.52806H2.03869C1.73369 2.52806 1.55711 2.70464 1.55711 3.00964V6.44492C1.55711 6.74992 1.73369 6.9265 2.03869 6.9265Z" fill="#1B1B1A"/>
</svg>