<svg xmlns="http://www.w3.org/2000/svg" width="77" height="208" viewBox="0 0 77 208" fill="none">
  <path d="M31.4519 25.3749H34.6848C35.3628 25.3749 35.9338 25.6033 36.3834 26.0529L46.9245 36.594C47.4312 37.1007 47.6881 37.6716 47.6881 38.2925V64.9842C47.6881 65.6622 47.3455 66.0047 46.6675 66.0047H40.4657C39.7877 66.0047 39.4451 65.6622 39.4451 64.9842V36.1729C39.4451 34.4744 38.5958 33.6251 36.8973 33.6251H33.2432L8.243 60.2239V63.4569C8.243 65.1555 9.09228 66.0047 10.7908 66.0047H34.5921C35.2701 66.0047 35.841 66.2331 36.2906 66.6827L46.8317 77.2238C47.3384 77.7305 47.5953 78.3014 47.5953 78.9223V83.8539C47.5953 84.5319 47.2528 84.8744 46.5748 84.8744H40.3729C39.6949 84.8744 39.3523 84.5319 39.3523 83.8539V76.7956C39.3523 75.097 38.503 74.2477 36.8045 74.2477H13.0032C12.3253 74.2477 11.7543 74.0194 11.3047 73.5697L0.763638 63.0287C0.256925 62.522 0 61.951 0 61.3301V58.1828C0 57.5048 0.228378 56.9339 0.677996 56.4842L29.7533 26.0529C30.2029 25.6033 30.7739 25.3749 31.4519 25.3749Z" fill="#1B1B1A"/>
  <path d="M12.9319 101.289H35.5413C36.1622 101.289 36.7331 101.546 37.2398 102.053L47.7809 112.594C48.2305 113.051 48.4589 113.614 48.4589 114.292V118.71C48.4589 119.388 48.2305 119.959 47.7809 120.409L29.8461 138.258C29.3394 138.764 28.8541 138.764 28.3973 138.258L24.2294 134.004C23.6656 133.44 23.6656 132.926 24.2294 132.477L40.2087 116.669V112.08C40.2087 110.381 39.3594 109.532 37.6609 109.532H10.798C9.09942 109.532 8.25014 110.381 8.25014 112.08V121.008C8.25014 121.686 7.90758 122.029 7.22958 122.029H1.02056C0.342567 122.029 0 121.686 0 121.008V114.207C0 113.529 0.228381 112.958 0.677999 112.508L11.219 101.967C11.6687 101.517 12.2396 101.289 12.9176 101.289H12.9319ZM41.2364 131.549L47.7809 138.094C48.2305 138.55 48.4589 139.114 48.4589 139.792V147.949C48.4589 148.627 48.2305 149.198 47.7809 149.648L37.2398 160.189C36.7831 160.646 36.2193 160.867 35.5413 160.867L13.0175 160.781C12.3395 160.781 11.7686 160.553 11.319 160.103L0.777914 149.562C0.271201 149.056 0.0142766 148.485 0.0142766 147.864V141.062C0.0142766 140.384 0.356843 140.042 1.03484 140.042H7.24385C7.92185 140.042 8.26441 140.384 8.26441 141.062V149.991C8.26441 151.689 9.11369 152.538 10.8123 152.538L37.6752 152.624C39.3737 152.624 40.223 151.746 40.223 149.991V131.97C40.223 131.578 40.3229 131.335 40.5228 131.249C40.7226 131.164 40.9581 131.264 41.2436 131.549H41.2364Z" fill="#1B1B1A"/>
  <path d="M2.26367 207.99H0V187.042H2.26367V188.97C3.58734 187.483 5.2755 186.735 7.31856 186.735C9.36162 186.735 10.9155 187.435 12.22 188.845C13.5437 190.236 14.2055 191.963 14.2055 194.025C14.2055 196.087 13.5437 197.852 12.22 199.243C10.9155 200.634 9.28489 201.324 7.31856 201.324C5.35224 201.324 3.58734 200.576 2.26367 199.089V208V207.99ZM10.4551 190.457C9.56305 189.507 8.4408 189.027 7.06917 189.027C5.69754 189.027 4.5753 189.507 3.68326 190.457C2.77204 191.425 2.32122 192.615 2.32122 194.025C2.32122 195.435 2.77204 196.624 3.68326 197.593C4.5753 198.543 5.69754 199.022 7.06917 199.022C8.4408 199.022 9.56305 198.543 10.4551 197.593C11.3855 196.643 11.8555 195.454 11.8555 194.025C11.8555 192.596 11.3855 191.406 10.4551 190.457Z" fill="#1B1B1A"/>
  <path d="M17.7157 182.476C17.6774 181.834 17.9268 181.383 18.4735 181.124C19.0202 180.865 19.567 180.865 20.1233 181.124C20.67 181.383 20.9194 181.834 20.8523 182.476C20.8523 182.927 20.7084 183.311 20.4206 183.608C20.1329 183.905 19.7588 184.059 19.2984 184.059C18.838 184.059 18.4639 183.915 18.1666 183.627C17.8692 183.34 17.7157 182.956 17.7157 182.476ZM20.4494 201.008H18.157V187.042H20.4494V201.008Z" fill="#1B1B1A"/>
  <path d="M25.0598 201.008C24.8331 201.008 24.7197 200.894 24.7197 200.667V198.662C24.7197 198.435 24.7982 198.252 24.9465 198.095L34.8786 188.137V187.09C34.8786 186.864 34.992 186.75 35.2187 186.75H37.2766C37.5034 186.75 37.6167 186.864 37.6167 187.09V188.808C37.6167 189.035 37.5382 189.218 37.39 189.375L27.4578 199.333V200.659C27.4578 200.885 27.3445 200.999 27.1177 200.999H25.0598V201.008ZM29.01 192.994C28.7833 192.994 28.6002 192.915 28.4432 192.767L24.9465 189.27C24.7982 189.122 24.7197 188.93 24.7197 188.704V187.099C24.7197 186.872 24.8331 186.759 25.0598 186.759H27.1177C27.3445 186.759 27.4578 186.872 27.4578 187.099V189.41C27.4578 189.977 27.7369 190.256 28.3037 190.256H29.1495C29.3763 190.256 29.4896 190.369 29.4896 190.596V192.654C29.4896 192.88 29.3763 192.994 29.1495 192.994H29.01ZM35.2187 201.008C34.992 201.008 34.8786 200.894 34.8786 200.667V198.182C34.8786 197.615 34.5996 197.336 34.0328 197.336H33.1869C32.9602 197.336 32.8468 197.223 32.8468 196.996V194.938C32.8468 194.712 32.9602 194.598 33.1869 194.598H33.3264C33.5532 194.598 33.7363 194.677 33.8933 194.825L37.39 198.322C37.5382 198.47 37.6167 198.845 37.6167 199.447V200.659C37.6167 200.885 37.5034 200.999 37.2766 200.999H35.2187V201.008Z" fill="#1B1B1A"/>
  <path d="M55.5273 194.802H43.5471C43.691 196.039 44.2377 197.085 45.1969 197.938C46.1465 198.763 47.2975 199.176 48.6403 199.176C50.4244 199.176 51.7961 198.504 52.7648 197.161L54.9709 197.871C54.3283 198.945 53.4458 199.789 52.3332 200.403C51.211 201.017 49.9832 201.315 48.6403 201.315C46.4918 201.315 44.7077 200.624 43.2977 199.233C41.8877 197.823 41.1875 196.087 41.1875 194.015C41.1875 191.943 41.8781 190.217 43.2689 188.836C44.6789 187.426 46.3959 186.725 48.4197 186.725C50.4436 186.725 52.1414 187.426 53.513 188.836C54.9038 190.226 55.5944 191.953 55.5944 194.015C55.5944 194.322 55.5752 194.581 55.5369 194.792L55.5273 194.802ZM43.5759 192.97H53.2252C52.995 191.771 52.4291 190.783 51.5371 190.025C50.6354 189.258 49.5803 188.874 48.3526 188.874C47.1248 188.874 46.1369 189.258 45.2448 190.025C44.3528 190.792 43.7965 191.771 43.5663 192.97H43.5759Z" fill="#1B1B1A"/>
  <path d="M61.6084 201.008H59.3447V178.505H61.6084V201.008Z" fill="#1B1B1A"/>
  <path d="M75.7942 190.083L73.6552 190.485C73.5113 189.967 73.1756 189.545 72.6481 189.229C72.1205 188.912 71.4587 188.749 70.6818 188.749C69.9048 188.749 69.2813 188.912 68.773 189.248C68.2646 189.584 68.0152 190.015 68.0152 190.553C68.0152 191.32 68.514 191.867 69.502 192.202L72.8879 193.411C75.0173 194.178 76.082 195.454 76.082 197.228C76.082 198.514 75.5928 199.511 74.624 200.24C73.6552 200.969 72.3891 201.324 70.8352 201.324C69.2813 201.324 68.1111 200.988 67.1424 200.317C66.1736 199.646 65.5885 198.754 65.4062 197.631L67.5836 197.286C67.7083 197.89 68.0728 198.37 68.6675 198.744C69.2718 199.118 70.0007 199.3 70.8736 199.3C71.7464 199.3 72.4658 199.118 73.0317 198.744C73.5977 198.37 73.8854 197.89 73.8854 197.286C73.8854 196.48 73.2715 195.857 72.0534 195.425L68.7634 194.274C66.7971 193.555 65.8187 192.375 65.8187 190.735C65.8187 189.469 66.2791 188.49 67.1999 187.79C68.1207 187.09 69.3389 186.735 70.8448 186.735C72.1877 186.735 73.3099 187.042 74.202 187.646C75.094 188.26 75.6311 189.066 75.8134 190.083H75.7942Z" fill="#1B1B1A"/>
  <path d="M68.6442 7.06116H74.8353C74.9769 7.06116 75.0781 7.16232 75.0781 7.30395V8.78092C75.0781 8.92255 74.9769 9.02371 74.8353 9.02371H68.6442C68.5025 9.02371 68.4014 8.92255 68.4014 8.78092V7.30395C68.4014 7.16232 68.5025 7.06116 68.6442 7.06116Z" fill="#1B1B1A"/>
  <path d="M57.2262 14.9316H66.432C66.5736 14.9316 66.6748 15.0328 66.6748 15.1744V16.6514C66.6748 16.793 66.5736 16.8942 66.432 16.8942H57.2262C57.0846 16.8942 56.9834 16.793 56.9834 16.6514V15.1744C56.9834 15.0328 57.0846 14.9316 57.2262 14.9316Z" fill="#1B1B1A"/>
  <path d="M49.0897 0H52.6303C52.8327 0 52.9338 0.0404656 53.0552 0.16186L55.8069 2.91348C55.8878 2.99442 55.8878 3.11581 55.7866 3.21697L54.7345 4.26907C54.6334 4.37023 54.512 4.39046 54.4108 4.2893L51.3152 1.19372C51.032 0.910464 50.7285 0.910464 50.4452 1.19372L47.3294 4.30953C47.2283 4.41069 47.1069 4.39046 47.0057 4.2893L45.9536 3.23721C45.8524 3.13604 45.8524 3.01465 45.9334 2.93372L48.685 0.182093C48.8266 0.0404656 48.9076 0 49.0897 0Z" fill="#1B1B1A"/>
</svg>