<svg xmlns="http://www.w3.org/2000/svg" width="38" height="38" viewBox="0 0 38 38" fill="none">
  <circle cx="19" cy="19" r="19" fill="#FD6A18"/>
  <path d="M13.0144 26.3829C12.8118 26.3829 12.667 26.2381 12.667 26.0354V23.9798C12.667 23.7482 12.7249 23.5745 12.8986 23.4008L23.0898 13.1806V12.1093C23.0898 11.9067 23.2346 11.7619 23.4373 11.7619H25.5508C25.7535 11.7619 25.8982 11.9067 25.8982 12.1093V13.8754C25.8982 14.107 25.8403 14.2808 25.6666 14.4545L15.4754 24.6747V26.0354C15.4754 26.2381 15.3306 26.3829 15.1279 26.3829H13.0144ZM17.0678 18.1604C16.8361 18.1604 16.6624 18.1025 16.4887 17.9288L12.8986 14.3387C12.7249 14.1649 12.667 13.9912 12.667 13.7596V12.1093C12.667 11.9067 12.8118 11.7619 13.0144 11.7619H15.1279C15.3306 11.7619 15.4754 11.9067 15.4754 12.1093V14.4834C15.4754 15.0335 15.7938 15.352 16.3439 15.352H17.2125C17.4152 15.352 17.5599 15.4968 17.5599 15.6994V17.8129C17.5599 18.0156 17.4152 18.1604 17.2125 18.1604H17.0678ZM23.4373 26.3829C23.2346 26.3829 23.0898 26.2381 23.0898 26.0354V23.4876C23.0898 22.9375 22.7714 22.619 22.2213 22.619H21.3527C21.15 22.619 21.0053 22.4743 21.0053 22.2716V20.1581C21.0053 19.9554 21.15 19.8107 21.3527 19.8107H21.4975C21.7291 19.8107 21.9028 19.8686 22.0765 20.0423L25.6666 23.6324C25.8403 23.8061 25.8982 23.9798 25.8982 24.7905V26.0354C25.8982 26.2381 25.7535 26.3829 25.5508 26.3829H23.4373Z" fill="white"/>
</svg>