<svg xmlns="http://www.w3.org/2000/svg" width="52" height="31" viewBox="0 0 52 31" fill="none">
  <path d="M40.3055 14.1248H51.6204C51.8483 14.1248 52.0001 14.2766 52.0001 14.5045V16.0612C52.0001 16.289 51.8483 16.4409 51.6204 16.4409H40.3055C40.0777 16.4409 39.9258 16.289 39.9258 16.0612V14.5045C39.9258 14.2766 40.0777 14.1248 40.3055 14.1248Z" fill="#D1D3D4"/>
  <path d="M20.5945 28.2114H36.5798C36.8076 28.2114 36.9595 28.3633 36.9595 28.5911V30.1479C36.9595 30.3757 36.8076 30.5276 36.5798 30.5276H20.5945C20.3667 30.5276 20.2148 30.3757 20.2148 30.1479V28.5911C20.2148 28.3633 20.3667 28.2114 20.5945 28.2114Z" fill="#D1D3D4"/>
  <path d="M6.64469 0H11.8086C12.0364 0 12.2262 0.0759384 12.4161 0.265789L18.3394 6.18906C18.4912 6.34094 18.4912 6.49282 18.3014 6.68266L17.2003 7.78379C17.0104 7.97363 16.8206 7.97363 16.6687 7.82175L10.4417 1.55676C9.72024 0.835334 8.771 0.835334 8.04957 1.55676L1.74661 7.82175C1.59473 8.0116 1.44285 7.97363 1.253 7.82175L0.113909 6.68266C-0.0379697 6.53079 -0.0379697 6.34094 0.113909 6.18906L6.03718 0.265789C6.22703 0.0759384 6.37891 0 6.64469 0Z" fill="#D1D3D4"/>
</svg>