<svg xmlns="http://www.w3.org/2000/svg" width="510" height="181" viewBox="0 0 510 181" fill="none">
  <path d="M95.9841 0H105.804C108.13 0 109.422 0.516836 110.972 2.06731L143.015 34.1106C144.824 35.9195 145.341 37.2115 145.341 39.2789V120.421C145.341 122.23 144.049 123.522 142.24 123.522H123.376C121.567 123.522 120.275 122.23 120.275 120.421V32.8185C120.275 27.9087 117.432 25.0661 112.523 25.0661H101.411L25.4372 105.95V115.769C25.4372 120.679 28.2798 123.522 33.1896 123.522H105.545C107.871 123.522 109.163 124.038 110.714 125.589L142.757 157.632C144.566 159.441 145.083 160.733 145.083 162.801V177.788C145.083 179.597 143.791 180.889 141.982 180.889H123.118C121.309 180.889 120.017 179.597 120.017 177.788V156.34C120.017 151.43 117.174 148.588 112.264 148.588H39.9084C37.5826 148.588 36.2906 148.071 34.7401 146.52L2.69682 114.477C0.88792 112.668 0.371094 111.376 0.371094 109.309V99.7476C0.371094 97.6803 0.629507 96.3882 2.4384 94.5793L90.8158 2.06731C92.6247 0.25841 93.6584 0 95.9841 0Z" fill="#D1D3D4"/>
  <path d="M334.251 34.1106C335.802 35.6611 336.319 36.9531 336.319 39.2789V141.611C336.319 143.678 335.802 144.97 333.993 146.779L301.95 178.822C300.399 180.373 299.107 180.889 296.781 180.889H228.302C226.235 180.889 224.684 180.373 223.134 178.822L191.09 146.779C189.54 145.228 189.023 143.678 189.023 141.611V39.2789C189.023 37.2115 189.54 35.6611 191.09 34.1106L223.134 2.06731C224.684 0.516836 226.235 0 228.302 0H297.04C299.107 0 300.658 0.516836 302.208 2.06731L334.251 34.1106ZM221.842 25.0661C216.932 25.0661 214.089 27.9087 214.089 32.8185V120.162L309.444 27.1334C307.893 25.8414 306.084 25.0661 303.5 25.0661H221.842ZM303.5 155.823C308.41 155.823 311.253 152.981 311.253 148.071V59.6935L215.64 153.239C216.932 155.048 218.999 155.823 221.842 155.823H303.5Z" fill="#D1D3D4"/>
  <path d="M460.004 0H469.824C472.149 0 473.441 0.516836 474.992 2.06731L507.035 34.1106C508.844 35.9195 509.361 37.2115 509.361 39.2789V120.421C509.361 122.23 508.069 123.522 506.26 123.522H487.396C485.587 123.522 484.295 122.23 484.295 120.421V32.8185C484.295 27.9087 481.452 25.0661 476.542 25.0661H465.431L389.457 105.95V115.769C389.457 120.679 392.3 123.522 397.209 123.522H469.565C471.891 123.522 473.183 124.038 474.733 125.589L506.777 157.632C508.586 159.441 509.102 160.733 509.102 162.801V177.788C509.102 179.597 507.81 180.889 506.001 180.889H487.137C485.328 180.889 484.036 179.597 484.036 177.788V156.34C484.036 151.43 481.194 148.588 476.284 148.588H403.928C401.602 148.588 400.31 148.071 398.76 146.52L366.717 114.477C364.908 112.668 364.391 111.376 364.391 109.309V99.7476C364.391 97.6803 364.649 96.3882 366.458 94.5793L454.836 2.06731C456.645 0.25841 457.678 0 460.004 0Z" fill="#D1D3D4"/>
</svg>