<svg xmlns="http://www.w3.org/2000/svg" width="58" height="158" viewBox="0 0 58 158" fill="none">
  <path d="M23.8913 19.2752H26.3471C26.8622 19.2752 27.2959 19.4487 27.6374 19.7902L35.6445 27.7974C36.0294 28.1823 36.2246 28.616 36.2246 29.0876V49.363C36.2246 49.878 35.9644 50.1382 35.4494 50.1382H30.7383C30.2233 50.1382 29.9631 49.878 29.9631 49.363V27.4775C29.9631 26.1873 29.318 25.5421 28.0277 25.5421H25.2521L6.26151 45.747V48.2029C6.26151 49.4931 6.90664 50.1382 8.19689 50.1382H26.2767C26.7917 50.1382 27.2254 50.3117 27.5669 50.6532L35.5741 58.6604C35.959 59.0453 36.1541 59.479 36.1541 59.9506V63.6967C36.1541 64.2117 35.8939 64.4719 35.3789 64.4719H30.6679C30.1528 64.4719 29.8926 64.2117 29.8926 63.6967V58.3351C29.8926 57.0449 29.2475 56.3997 27.9572 56.3997H9.87747C9.36245 56.3997 8.92875 56.2263 8.58722 55.8847L0.580071 47.8776C0.195164 47.4927 0 47.059 0 46.5873V44.1966C0 43.6816 0.173479 43.2479 0.515016 42.9063L22.6011 19.7902C22.9426 19.4487 23.3763 19.2752 23.8913 19.2752Z" fill="#1B1B1A"/>
  <path d="M9.82326 76.9407H26.9977C27.4693 76.9407 27.903 77.1359 28.2879 77.5208L36.2951 85.528C36.6366 85.8749 36.8101 86.3032 36.8101 86.8182V90.1739C36.8101 90.689 36.6366 91.1227 36.2951 91.4642L22.6716 105.023C22.2866 105.408 21.918 105.408 21.571 105.023L18.4051 101.792C17.9768 101.363 17.9768 100.973 18.4051 100.631L30.5432 88.6235V85.1376C30.5432 83.8474 29.898 83.2022 28.6078 83.2022H8.20231C6.91206 83.2022 6.26694 83.8474 6.26694 85.1376V91.9196C6.26694 92.4346 6.00672 92.6948 5.4917 92.6948H0.775235C0.260219 92.6948 0 92.4346 0 91.9196V86.7531C0 86.2381 0.173482 85.8044 0.515019 85.4629L8.52216 77.4558C8.8637 77.1142 9.2974 76.9407 9.81242 76.9407H9.82326ZM31.3238 99.9267L36.2951 104.898C36.6366 105.245 36.8101 105.673 36.8101 106.188V112.385C36.8101 112.9 36.6366 113.333 36.2951 113.675L28.2879 121.682C27.941 122.029 27.5127 122.197 26.9977 122.197L9.88831 122.132C9.3733 122.132 8.9396 121.959 8.59806 121.617L0.590915 113.61C0.206009 113.225 0.0108448 112.791 0.0108448 112.32V107.153C0.0108448 106.638 0.271064 106.378 0.78608 106.378H5.50254C6.01756 106.378 6.27778 106.638 6.27778 107.153V113.935C6.27778 115.225 6.9229 115.871 8.21315 115.871L28.6186 115.936C29.9089 115.936 30.554 115.269 30.554 113.935V100.247C30.554 99.9484 30.6299 99.7641 30.7817 99.699C30.9335 99.634 31.1124 99.7099 31.3292 99.9267H31.3238Z" fill="#1B1B1A"/>
  <path d="M1.71952 157.993H0V142.08H1.71952V143.544C2.725 142.415 4.00735 141.847 5.55929 141.847C7.11123 141.847 8.29158 142.379 9.28249 143.45C10.288 144.506 10.7907 145.818 10.7907 147.384C10.7907 148.951 10.288 150.291 9.28249 151.348C8.29158 152.404 7.05294 152.929 5.55929 152.929C4.06564 152.929 2.725 152.361 1.71952 151.231V158V157.993ZM7.94185 144.674C7.26424 143.952 6.41177 143.588 5.36985 143.588C4.32794 143.588 3.47547 143.952 2.79786 144.674C2.10568 145.41 1.76324 146.313 1.76324 147.384C1.76324 148.455 2.10568 149.359 2.79786 150.095C3.47547 150.816 4.32794 151.18 5.36985 151.18C6.41177 151.18 7.26424 150.816 7.94185 150.095C8.6486 149.373 9.00562 148.47 9.00562 147.384C9.00562 146.299 8.6486 145.395 7.94185 144.674Z" fill="#1B1B1A"/>
  <path d="M13.457 138.612C13.4279 138.124 13.6173 137.781 14.0326 137.584C14.4479 137.388 14.8632 137.388 15.2858 137.584C15.7011 137.781 15.8906 138.124 15.8396 138.612C15.8396 138.954 15.7303 139.246 15.5117 139.472C15.2931 139.697 15.009 139.814 14.6592 139.814C14.3095 139.814 14.0253 139.705 13.7995 139.486C13.5736 139.268 13.457 138.976 13.457 138.612ZM15.5336 152.689H13.7922V142.08H15.5336V152.689Z" fill="#1B1B1A"/>
  <path d="M19.0357 152.688C18.8635 152.688 18.7773 152.602 18.7773 152.43V150.907C18.7773 150.734 18.837 150.595 18.9496 150.476L26.4942 142.912V142.117C26.4942 141.944 26.5803 141.858 26.7525 141.858H28.3158C28.488 141.858 28.5741 141.944 28.5741 142.117V143.422C28.5741 143.594 28.5145 143.733 28.4019 143.852L20.8573 151.417V152.423C20.8573 152.596 20.7711 152.682 20.5989 152.682H19.0357V152.688ZM22.0363 146.601C21.8641 146.601 21.725 146.541 21.6058 146.429L18.9496 143.773C18.837 143.66 18.7773 143.514 18.7773 143.342V142.123C18.7773 141.951 18.8635 141.865 19.0357 141.865H20.5989C20.7711 141.865 20.8573 141.951 20.8573 142.123V143.879C20.8573 144.309 21.0692 144.521 21.4998 144.521H22.1423C22.3145 144.521 22.4006 144.607 22.4006 144.779V146.343C22.4006 146.515 22.3145 146.601 22.1423 146.601H22.0363ZM26.7525 152.688C26.5803 152.688 26.4942 152.602 26.4942 152.43V150.542C26.4942 150.112 26.2822 149.9 25.8517 149.9H25.2092C25.0369 149.9 24.9508 149.814 24.9508 149.641V148.078C24.9508 147.906 25.0369 147.82 25.2092 147.82H25.3151C25.4874 147.82 25.6265 147.879 25.7457 147.992L28.4019 150.648C28.5145 150.761 28.5741 151.046 28.5741 151.503V152.423C28.5741 152.596 28.488 152.682 28.3158 152.682H26.7525V152.688Z" fill="#1B1B1A"/>
  <path d="M42.1798 147.974H33.0795C33.1888 148.914 33.6041 149.708 34.3327 150.357C35.054 150.984 35.9284 151.297 36.9484 151.297C38.3036 151.297 39.3455 150.787 40.0814 149.767L41.7572 150.306C41.2691 151.122 40.5987 151.763 39.7535 152.229C38.9011 152.696 37.9685 152.922 36.9484 152.922C35.3163 152.922 33.9611 152.397 32.89 151.341C31.819 150.269 31.2871 148.951 31.2871 147.377C31.2871 145.803 31.8117 144.492 32.8682 143.442C33.9392 142.371 35.2435 141.839 36.7808 141.839C38.3182 141.839 39.6078 142.371 40.6497 143.442C41.7062 144.499 42.2308 145.81 42.2308 147.377C42.2308 147.61 42.2163 147.807 42.1871 147.967L42.1798 147.974ZM33.1013 146.583H40.4312C40.2563 145.672 39.8264 144.921 39.1488 144.346C38.4639 143.763 37.6624 143.472 36.7298 143.472C35.7972 143.472 35.0467 143.763 34.3691 144.346C33.6915 144.929 33.2689 145.672 33.0941 146.583H33.1013Z" fill="#1B1B1A"/>
  <path d="M46.7986 152.689H45.0791V135.595H46.7986V152.689Z" fill="#1B1B1A"/>
  <path d="M57.5744 144.39L55.9496 144.696C55.8403 144.302 55.5853 143.982 55.1846 143.741C54.7839 143.501 54.2811 143.377 53.6909 143.377C53.1008 143.377 52.6272 143.501 52.241 143.756C51.8548 144.011 51.6654 144.339 51.6654 144.747C51.6654 145.329 52.0443 145.745 52.7948 146L55.3667 146.918C56.9843 147.501 57.793 148.47 57.793 149.818C57.793 150.794 57.4214 151.552 56.6855 152.106C55.9496 152.659 54.9879 152.929 53.8075 152.929C52.6272 152.929 51.7383 152.674 51.0024 152.164C50.2665 151.654 49.822 150.976 49.6836 150.124L51.3375 149.861C51.4323 150.32 51.7091 150.685 52.1609 150.969C52.6199 151.253 53.1736 151.392 53.8367 151.392C54.4997 151.392 55.0462 151.253 55.476 150.969C55.9059 150.685 56.1245 150.32 56.1245 149.861C56.1245 149.249 55.6582 148.776 54.7329 148.448L52.2337 147.574C50.7401 147.027 49.9969 146.131 49.9969 144.885C49.9969 143.923 50.3466 143.18 51.0461 142.648C51.7456 142.116 52.6709 141.847 53.8148 141.847C54.8349 141.847 55.6873 142.08 56.3649 142.539C57.0426 143.005 57.4506 143.617 57.589 144.39H57.5744Z" fill="#1B1B1A"/>
  <path d="M52.1424 5.36377H56.8453C56.9529 5.36377 57.0298 5.44061 57.0298 5.5482V6.67013C57.0298 6.77771 56.9529 6.85456 56.8453 6.85456H52.1424C52.0349 6.85456 51.958 6.77771 51.958 6.67013V5.5482C51.958 5.44061 52.0349 5.36377 52.1424 5.36377Z" fill="#1B1B1A"/>
  <path d="M43.4696 11.3423H50.4625C50.57 11.3423 50.6469 11.4191 50.6469 11.5267V12.6486C50.6469 12.7562 50.57 12.8331 50.4625 12.8331H43.4696C43.362 12.8331 43.2852 12.7562 43.2852 12.6486V11.5267C43.2852 11.4191 43.362 11.3423 43.4696 11.3423Z" fill="#1B1B1A"/>
  <path d="M37.2886 0H39.9781C40.1318 0 40.2087 0.0307383 40.3009 0.122952L42.3911 2.21313C42.4525 2.2746 42.4525 2.36682 42.3757 2.44366L41.5765 3.24285C41.4997 3.31969 41.4075 3.33506 41.3306 3.25822L38.9792 0.906768C38.764 0.691603 38.5335 0.691603 38.3183 0.906768L35.9515 3.27359C35.8746 3.35043 35.7824 3.33506 35.7056 3.25822L34.9064 2.45903C34.8296 2.38219 34.8296 2.28997 34.891 2.2285L36.9812 0.13832C37.0888 0.0307383 37.1503 0 37.2886 0Z" fill="#1B1B1A"/>
</svg>