<svg xmlns="http://www.w3.org/2000/svg" width="9" height="10" viewBox="0 0 9 10" fill="none">
  <path d="M2.888 9.59201C2.736 9.59201 2.622 9.55401 2.508 9.44001L0.152 7.08401C0.038 6.97001 0 6.85601 0 6.70401V3.58801C0 3.43601 0.038 3.32201 0.152 3.20801L2.508 0.852012C2.622 0.738013 2.736 0.700012 2.888 0.700012H5.187C5.339 0.700012 5.453 0.738013 5.567 0.852012L7.923 3.20801C8.037 3.32201 8.075 3.41701 8.075 3.58801V6.64701C8.075 6.81801 8.018 6.91301 7.904 7.02701L5.491 9.44001C5.377 9.55401 5.263 9.59201 5.111 9.59201H2.888ZM2.413 7.74901H4.655L6.232 6.13401V3.11301C6.232 2.75201 6.023 2.54301 5.662 2.54301H2.413C2.052 2.54301 1.843 2.75201 1.843 3.11301V7.17901C1.843 7.54001 2.052 7.74901 2.413 7.74901Z" fill="#FD6A18"/>
</svg>