<svg xmlns="http://www.w3.org/2000/svg" width="230" height="74" viewBox="0 0 230 74" fill="none">
  <path d="M72.6822 17.3017C72.6822 14.3904 72.7221 11.4658 72.6689 8.54784C72.6357 6.85954 72.5494 5.1646 72.0978 3.51618C71.7592 2.27322 71.2744 1.11668 70.4443 0.053186H79.821C79.8342 0.146242 79.8542 0.252592 79.8542 0.365588C79.8542 7.55082 79.8542 14.736 79.8343 21.9213C79.8343 22.4397 79.7214 22.9914 79.5355 23.4766C78.7585 25.4973 76.6666 25.3776 75.4713 24.4803C74.7939 23.9685 74.3623 23.2639 73.9971 22.5195C73.4193 21.3563 72.9014 20.1532 72.2572 19.0232C71.8322 18.2788 71.2943 17.5742 70.7033 16.9428C69.3752 15.5204 67.7084 15.1016 65.8158 15.5204C62.8872 16.1717 60.9282 18.0129 59.6266 20.6118C58.5641 22.7388 58.0329 25.032 57.6942 27.3783C57.4087 29.379 57.2825 31.3863 57.4352 33.4003C57.5946 35.5273 57.8934 37.6277 58.9028 39.562C59.0755 39.8943 59.268 40.22 59.4805 40.5324C61.1208 42.9253 63.2724 43.2642 65.8025 42.0878C67.1506 41.4563 68.2396 40.4992 69.0431 39.2628C69.8201 38.0797 70.4975 36.8301 71.208 35.6071C71.9053 34.4107 72.5362 33.1677 73.3065 32.0178C73.944 31.0673 74.8935 30.4425 76.0557 30.263C77.9283 29.9706 79.5952 31.3199 79.9339 33.3006C80.153 34.5768 80.06 35.8397 79.9272 37.1093C79.5421 40.8116 80.3257 44.2679 82.1651 47.4983C82.2515 47.6578 82.3245 47.824 82.4175 48.0234C81.8862 48.0234 81.428 48.0234 80.9698 48.0234C78.6323 48.0234 76.2948 48.0234 73.9506 48.0433C73.592 48.0433 73.3662 47.8971 73.3131 47.5847C73.1537 46.5744 72.9213 45.5574 72.9279 44.5471C72.9479 42.0014 73.6584 39.5819 74.5416 37.2156C74.794 36.5377 74.7342 35.9461 74.2627 35.3944C73.924 34.9956 73.5986 34.9358 73.1537 35.2083C72.5693 35.5672 72.2639 36.1322 71.9717 36.7304C71.1018 38.5251 70.2518 40.333 69.3088 42.0944C68.4787 43.6498 67.3963 45.039 65.9884 46.129C64.2552 47.4783 62.2896 48.0898 60.0782 48.05C57.5282 48.0034 55.5293 46.92 53.9024 45.0589C52.375 43.3174 51.4387 41.2569 50.8079 39.0501C49.8715 35.7733 49.6523 32.4698 50.2633 29.0932C50.8211 26.0224 51.711 23.0778 53.2981 20.3726C54.7192 17.9465 56.4789 15.8195 59.0422 14.5233C62.8341 12.6024 66.6193 12.3631 70.3049 14.8091C71.2213 15.4207 71.9518 16.2183 72.5295 17.1555C72.5561 17.202 72.5959 17.2485 72.6358 17.2884C72.6557 17.3084 72.6889 17.3017 72.6822 17.3017ZM85.6714 13.3136C86.5347 14.3239 86.9597 15.5337 87.2519 16.7966C87.7101 18.7507 87.8495 20.7448 87.8495 22.7455C87.8495 28.3089 87.8695 33.8723 87.8363 39.429C87.8297 40.7185 87.9824 41.9681 88.3941 43.1845C89.1047 45.2782 90.4129 46.8137 92.5445 47.6179C93.7731 48.0766 95.0215 48.0167 96.2832 48.0167C97.4055 48.0167 98.4215 47.6312 99.3844 47.1128C101.436 46.016 102.884 44.2945 103.98 42.3005C104.983 40.4925 105.819 38.5982 106.762 36.757C107.041 36.212 107.413 35.7002 107.798 35.2216C108.044 34.9158 108.462 34.8494 108.794 35.0488C109.007 35.175 109.233 35.4742 109.253 35.7068C109.292 36.1854 109.266 36.6972 109.133 37.1558C108.781 38.4187 108.329 39.655 107.971 40.9179C107.473 42.666 107.393 44.4607 107.579 46.2553C107.632 46.7738 107.818 47.2922 107.997 47.7907C108.044 47.9237 108.303 48.0566 108.462 48.0566C111.152 48.0633 113.835 48.0566 116.524 48.0433C116.597 48.0433 116.67 48.0034 116.783 47.9769C115.72 46.7073 115.222 45.2251 114.937 43.6764C114.538 41.5494 114.479 39.3958 114.479 37.2289C114.499 29.3524 114.479 21.4693 114.492 13.5928C114.492 13.194 114.399 13.0477 113.961 13.0477C111.072 13.061 108.177 13.0477 105.288 13.0477C105.228 13.0477 105.168 13.0876 105.062 13.1209C106.151 14.4635 106.702 15.9923 106.955 17.6208C107.307 19.8873 107.433 22.1672 107.38 24.4604C107.34 26.1221 107.46 27.7971 107.333 29.4521C107.028 33.4867 105.58 37.096 102.977 40.22C101.928 41.4762 100.746 42.5796 99.1586 43.1579C98.3485 43.4504 97.5649 43.5035 96.768 43.0582C95.7586 42.4866 95.3535 41.5095 95.1809 40.4859C94.9883 39.3825 94.9484 38.2392 94.9418 37.1159C94.9152 29.266 94.9152 21.4161 94.9219 13.5662C94.9219 13.174 94.8156 13.0477 94.4105 13.0544C91.575 13.0677 88.7461 13.061 85.9105 13.061C85.8042 13.061 85.6913 13.081 85.5386 13.1009C85.5917 13.2006 85.6117 13.2737 85.6515 13.3203L85.6714 13.3136ZM15.0477 14.1644C15.9177 15.6732 16.2763 17.3549 16.4423 19.0498C16.5951 20.572 16.615 22.114 16.615 23.6494C16.6283 30.5887 16.615 37.528 16.615 44.4607C16.615 45.5308 16.6216 46.601 16.615 47.6777C16.615 47.9436 16.6747 48.0633 16.9802 48.0633C19.0587 48.0433 21.1373 48.0367 23.2091 48.0234C23.7802 48.0234 23.7736 48.0234 23.7736 47.4584C23.7736 42.8654 23.7404 38.2791 23.7736 33.6862C23.7869 31.938 23.8599 30.2032 24.3447 28.4883C25.1814 25.5172 26.5892 22.885 28.6611 20.6052C29.5111 19.668 30.4873 18.8571 31.6428 18.3054C32.3666 17.9597 33.1237 17.6739 33.9472 17.7803C35.2288 17.9531 36.0257 18.784 36.3444 19.9538C36.6433 21.0306 36.8823 22.1672 36.8889 23.2772C36.9354 28.6213 36.8889 33.9653 36.8889 39.3094C36.8889 42.0745 36.8889 44.8395 36.8889 47.6113C36.8889 47.8373 36.8292 48.0699 37.221 48.0699C39.3526 48.0433 41.4909 48.0367 43.6226 48.0367C43.9347 48.0367 43.9879 47.9237 43.9879 47.6578C43.9746 46.4148 43.9679 45.1652 43.9679 43.9223C43.9679 36.5244 43.9679 29.1198 43.9679 21.7219C43.9679 20.0402 43.8152 18.3984 43.0382 16.8697C42.2878 15.3941 41.1987 14.2708 39.6315 13.6725C36.4706 12.4695 33.5554 13.0278 30.8792 14.9886C28.8936 16.4443 27.5322 18.4317 26.3502 20.5387C25.6662 21.7617 25.0951 23.0512 24.451 24.2942C24.192 24.7927 23.8865 25.2646 23.5611 25.7299C23.2822 26.1287 22.8506 26.2284 22.3924 26.1021C21.9806 25.9825 21.8677 25.5903 21.8478 25.238C21.8279 24.8459 21.8677 24.4138 22.0138 24.0549C22.6247 22.566 23.1029 21.0372 23.4084 19.4553C23.7736 17.5543 23.8134 15.6599 23.3486 13.7722C23.1826 13.1009 23.1294 13.0544 22.4388 13.0544C19.8689 13.0544 17.2989 13.0544 14.7223 13.0544C14.5962 13.0544 14.47 13.0677 14.3106 13.0743C14.5895 13.4731 14.8485 13.7988 15.0544 14.1644H15.0477ZM200.934 17.2419C201.671 19.0498 202.441 20.8445 203.138 22.6657C203.311 23.111 203.49 23.244 203.935 23.2108C205.429 23.1044 206.804 22.6524 208.072 21.8747C209.553 20.9708 210.735 19.7478 211.878 18.4583C212.9 17.2951 213.896 16.092 215.039 15.0484C216.938 13.307 219.939 13.9783 220.59 16.8564C220.749 17.5609 220.856 18.2854 220.882 19.0033C220.989 21.8681 219.999 24.3274 218.014 26.3946C216.639 27.8237 214.919 28.6678 213.126 29.4056C210.888 30.3295 208.624 31.187 206.426 32.1906C203.324 33.5998 201.053 35.7799 200.051 39.1698C199.254 41.8551 200.389 45.1586 202.879 46.7804C204.387 47.7575 206.034 48.0832 207.807 48.0633C209.474 48.0433 211.014 47.6445 212.449 46.807C214.268 45.7435 215.603 44.1881 216.586 42.3736C217.628 40.4593 218.512 38.4519 219.501 36.5111C219.733 36.0591 220.079 35.647 220.444 35.2947C220.789 34.9623 221.327 35.0487 221.646 35.4143C222.064 35.8929 222.23 36.4114 221.998 37.0495C221.38 38.7909 220.862 40.5656 220.583 42.4068C220.318 44.115 220.311 45.8033 220.696 47.4916C220.783 47.8838 220.949 48.03 221.367 48.03C223.924 48.0167 226.48 48.03 229.037 48.03C229.276 48.03 229.515 48.03 229.841 48.03C229.661 47.6844 229.522 47.4185 229.382 47.1593C228.273 45.039 227.377 42.8455 227.364 40.4128C227.357 38.7045 227.443 36.9963 227.47 35.288C227.49 34.0983 227.43 32.9218 226.812 31.8383C226.095 30.5754 224.468 29.9241 223.06 30.3362C221.812 30.7017 220.942 31.5392 220.291 32.5894C219.641 33.6463 219.056 34.7497 218.538 35.8796C217.582 37.9534 216.26 39.7082 214.388 41.0309C213.04 41.9814 211.585 42.6594 209.872 42.2606C208.199 41.8684 207.03 40.9179 206.698 39.1499C206.452 37.8205 206.764 36.5842 207.561 35.5406C208.205 34.6965 208.956 33.8989 209.773 33.2209C212.064 31.3132 214.707 29.9839 217.396 28.7276C219.753 27.6309 222.064 26.4544 224.11 24.8193C225.418 23.7691 226.54 22.566 227.191 21.004C228.167 18.6643 227.596 16.3645 225.544 14.869C224.07 13.7922 222.35 13.3734 220.577 13.1674C218.113 12.8816 215.669 13.1208 213.279 13.7523C211.094 14.3239 208.949 15.0351 206.771 15.6467C205.629 15.9657 204.467 16.2249 203.304 16.4509C202.494 16.6038 201.671 16.6503 200.788 16.75C200.841 16.9494 200.874 17.1089 200.934 17.2618V17.2419ZM164.364 47.7442C163.494 46.262 162.816 44.7066 162.385 43.0449C161.82 40.8714 161.78 38.6646 162.026 36.4446C162.159 35.2415 162.192 34.0584 161.886 32.8686C161.229 30.3029 158.533 29.3657 156.421 30.9809C155.279 31.8516 154.575 33.0414 153.938 34.291C153.333 35.4741 152.809 36.7105 152.098 37.8271C150.85 39.7879 149.203 41.33 146.952 42.1143C145.006 42.7857 142.768 42.0279 141.798 40.3729C141.221 39.3759 141.214 38.2924 141.447 37.209C141.739 35.8796 142.569 34.8759 143.538 33.972C145.63 32.0245 148.107 30.6552 150.637 29.379C152.45 28.4617 154.276 27.5844 156.063 26.6272C157.736 25.7299 159.23 24.5866 160.492 23.1509C161.495 22.0143 162.159 20.7049 162.311 19.1894C162.517 17.1222 161.256 15.1814 159.104 14.1843C156.428 12.9347 153.592 12.8616 150.743 13.2006C148.247 13.4997 145.843 14.2442 143.452 15.0019C141.48 15.6334 139.501 16.2515 137.429 16.4908C136.771 16.5639 136.114 16.657 135.403 16.7434C135.55 17.0824 135.682 17.3948 135.815 17.7072C136.486 19.3556 137.163 20.9974 137.807 22.6524C137.987 23.1177 138.266 23.2573 138.737 23.2041C140.251 23.0512 141.652 22.5793 142.927 21.7551C144.607 20.6717 145.896 19.1761 147.197 17.6872C148.027 16.7434 148.891 15.8195 149.8 14.9487C150.484 14.2841 151.361 14.0979 152.331 14.1179C153.645 14.1445 154.735 15.2346 155.06 16.2116C155.671 18.0794 155.81 19.9538 155.259 21.8814C154.416 24.8326 152.669 27.0593 149.913 28.3886C147.788 29.4123 145.57 30.2431 143.405 31.187C142.184 31.7187 140.922 32.1973 139.786 32.8686C136.931 34.5502 134.912 36.8833 134.573 40.3263C134.321 42.8787 135.171 44.9991 137.27 46.5544C138.797 47.691 140.543 48.0765 142.436 48.05C143.89 48.03 145.258 47.7508 146.553 47.1061C148.512 46.1224 149.98 44.6003 151.029 42.7258C152.072 40.878 152.942 38.9305 153.911 37.0428C154.203 36.4712 154.555 35.9195 154.947 35.4143C155.186 35.1019 155.551 34.8892 155.983 35.1152C156.408 35.3412 156.773 35.6536 156.753 36.1787C156.74 36.5908 156.687 37.0162 156.547 37.4017C155.744 39.6617 155.146 41.9681 155.053 44.3676C155.013 45.4577 154.987 46.5677 155.445 47.6179C155.578 47.9237 155.764 48.03 156.109 48.03C158.739 48.0167 161.369 48.03 163.998 48.03C164.151 48.03 164.31 48.03 164.556 48.03C164.47 47.8771 164.43 47.804 164.39 47.7376L164.364 47.7442ZM192.387 13.2538C192.055 13.3601 191.736 13.4997 191.398 13.5728C188.941 14.0979 186.477 13.8387 184.033 13.5064C182.2 13.2604 180.381 13.0145 178.528 13.0544C175.772 13.1209 173.269 13.8653 171.217 15.8128C168.587 18.312 168.301 22.3467 170.592 25.0918C171.735 26.4677 173.156 27.4847 174.73 28.2889C177.246 29.5784 179.803 30.7881 182.307 32.0909C184.312 33.1345 186.318 34.1847 188.243 35.3678C190.375 36.6772 191.836 38.5383 192.075 41.1173C192.228 42.7724 191.67 43.9555 190.408 44.6135C189.498 45.0855 188.502 45.2184 187.486 45.0855C185.494 44.8263 183.675 44.0818 181.968 43.0715C180.52 42.2141 179.139 41.2503 177.685 40.4128C175.825 39.336 173.82 38.7444 171.642 39.0501C170.665 39.1897 169.703 39.4091 168.74 39.6151C168.66 39.6351 168.56 39.8478 168.574 39.9608C168.833 42.0678 169.105 44.1749 169.39 46.2819C169.464 46.8402 169.603 47.3986 169.716 47.9968C170.001 47.824 170.207 47.691 170.42 47.578C170.639 47.465 170.865 47.372 171.091 47.2656C173.382 46.1556 175.746 45.9296 178.196 46.6674C179.252 46.9865 180.301 47.3055 181.357 47.6179C183.13 48.1497 184.963 48.2361 186.749 47.917C189.771 47.372 192.015 45.5973 193.662 43.0516C194.891 41.1572 195.628 39.0634 195.568 36.8301C195.482 33.6529 194.18 30.9676 191.364 29.3192C188.077 27.3983 184.691 25.6368 181.33 23.8356C179.783 23.0113 178.183 22.2935 176.635 21.4626C175.493 20.8511 174.57 19.9671 173.999 18.7773C172.917 16.524 174.371 14.6297 176.191 14.1511C177.452 13.8188 178.694 13.9916 179.909 14.4236C181.569 15.0152 183.004 15.9989 184.418 17.0159C186.391 18.425 188.443 19.6613 190.866 20.1333C191.723 20.2994 192.6 20.3725 193.596 20.4988C193.357 17.9464 193.131 15.5469 192.905 13.0876C192.679 13.1607 192.533 13.2073 192.387 13.2538ZM0.491404 48.0566C2.64298 48.0566 4.7879 48.0367 6.93948 48.0433C8.04847 48.0433 8.04185 48.0566 8.04185 46.9466C8.04185 31.4395 8.04185 15.9258 8.04185 0.418754C8.04185 0.292464 8.02855 0.166169 8.01527 0.0398794H0V48.0566C0.172658 48.0566 0.325374 48.0566 0.47811 48.0566H0.491404ZM121.113 4.83889C121.358 6.52719 121.518 8.24209 121.518 9.94368C121.551 22.473 121.531 35.0022 121.518 47.5249C121.518 47.9702 121.671 48.0433 122.069 48.0367C124.015 48.0167 125.96 48.0234 127.906 48.0367C128.557 48.0367 128.557 48.0632 128.557 47.4185C128.557 31.7785 128.557 16.1319 128.57 0.491879C128.57 0.0664822 128.431 0 128.052 0C125.25 0.0132937 122.447 0.00665332 119.638 0.00665332C119.499 0.00665332 119.36 0.00665332 119.081 0.00665332C120.296 1.4889 120.854 3.12402 121.099 4.83226L121.113 4.83889ZM0.338681 72.9557C0.219149 72.9557 0.126157 72.9091 0.0663906 72.8227C0.00662447 72.7363 -2.26985e-05 72.6366 0.0597434 72.5236L5.13323 61.3968C5.19964 61.2772 5.29256 61.2173 5.41209 61.2173H5.57811C5.69764 61.2173 5.79064 61.2772 5.85705 61.3968L10.8973 72.5236C10.9504 72.6366 10.9504 72.7296 10.8907 72.8227C10.8309 72.9091 10.738 72.9557 10.6184 72.9557H9.57581C9.39651 72.9557 9.27038 72.8759 9.19733 72.7097L8.17464 70.4431H2.77576C2.66287 70.6957 2.49684 71.0746 2.27106 71.5731C2.04528 72.0716 1.87925 72.4505 1.76636 72.7031C1.69996 72.8692 1.57382 72.949 1.38788 72.949H0.345328L0.338681 72.9557ZM3.41332 69.0207H7.5438L5.51172 64.4876H5.43203L3.41989 69.0207H3.41332ZM23.9131 72.6432V62.9389H21.2236C21.1373 62.9389 21.0642 62.9056 20.9978 62.8458C20.9381 62.786 20.9049 62.7129 20.9049 62.6198V61.6959C20.9049 61.6095 20.9381 61.5364 20.9978 61.4699C21.0576 61.4101 21.1306 61.3769 21.2236 61.3769H28.3291C28.4154 61.3769 28.4885 61.4101 28.5549 61.4699C28.6147 61.5297 28.6479 61.6029 28.6479 61.6959V62.6198C28.6479 62.7062 28.6147 62.786 28.5549 62.8458C28.4952 62.9056 28.4221 62.9389 28.3291 62.9389H25.6397V72.6432C25.6397 72.723 25.6064 72.7895 25.5467 72.8559C25.4869 72.9224 25.4139 72.9557 25.3209 72.9557H24.2318C24.1455 72.9557 24.0724 72.9224 24.006 72.8559C23.9462 72.7895 23.9131 72.7164 23.9131 72.6432ZM33.4956 72.6432V61.6959C33.4956 61.6161 33.5288 61.5497 33.5885 61.4832C33.6483 61.4167 33.7213 61.3835 33.8143 61.3835H34.9034C34.9897 61.3835 35.0627 61.4167 35.1291 61.4832C35.1889 61.5497 35.2221 61.6228 35.2221 61.6959V72.6432C35.2221 72.723 35.1889 72.7895 35.1291 72.8559C35.0694 72.9224 34.9963 72.9557 34.9034 72.9557H33.8143C33.728 72.9557 33.6549 72.9224 33.5885 72.8559C33.5288 72.7895 33.4956 72.7164 33.4956 72.6432ZM40.7007 72.5768L42.7461 61.4633C42.7925 61.2971 42.8921 61.2173 43.0449 61.2173H43.3105C43.4566 61.2173 43.5496 61.2772 43.5894 61.3968L47.0426 69.8449H47.109L50.5422 61.3968C50.5887 61.2772 50.6816 61.2173 50.8211 61.2173H51.0867C51.2395 61.2173 51.3391 61.2971 51.3856 61.4633L53.4176 72.5768C53.4707 72.8294 53.3712 72.9557 53.1188 72.9557H52.043C51.877 72.9557 51.7707 72.8759 51.7308 72.723L50.509 65.3317H50.4625L47.4875 72.9357C47.441 73.0554 47.348 73.1152 47.2086 73.1152H46.9098C46.7637 73.1152 46.6707 73.0554 46.6308 72.9357L43.6425 65.3317H43.5761L42.3874 72.723C42.3742 72.7762 42.3409 72.8294 42.2812 72.8825C42.2214 72.9291 42.155 72.9557 42.0886 72.9557H41.0129C40.7738 72.9557 40.6675 72.8294 40.7007 72.5768ZM58.9228 72.6432V61.6959C58.9228 61.6095 58.956 61.5364 59.0157 61.4699C59.0755 61.4035 59.1485 61.3769 59.2415 61.3769H65.8489C65.9353 61.3769 66.0084 61.4101 66.0748 61.4699C66.1346 61.5297 66.1678 61.6029 66.1678 61.6959V62.6198C66.1678 62.7062 66.1346 62.786 66.0748 62.8458C66.015 62.9056 65.9419 62.9389 65.8489 62.9389H60.6294V66.3088H65.0388C65.1185 66.3088 65.1849 66.342 65.2513 66.4085C65.3177 66.475 65.3509 66.5481 65.3509 66.6212V67.5451C65.3509 67.6315 65.3178 67.7047 65.258 67.7711C65.1982 67.8309 65.1251 67.8642 65.0322 67.8642H60.6227V71.4202H65.8423C65.9286 71.4202 66.0017 71.4535 66.0681 71.5133C66.1279 71.5731 66.1611 71.6462 66.1611 71.7393V72.6499C66.1611 72.7363 66.1279 72.8094 66.0681 72.8759C66.0084 72.9357 65.9353 72.9689 65.8423 72.9689H59.2348C59.1485 72.9689 59.0755 72.9357 59.0091 72.8759C58.9493 72.8161 58.9161 72.743 58.9161 72.6499L58.9228 72.6432ZM71.726 72.6432V61.6959C71.726 61.6095 71.7591 61.5364 71.8189 61.4699C71.8787 61.4035 71.9518 61.3769 72.0447 61.3769H73.1338C73.2202 61.3769 73.2932 61.4101 73.3596 61.4766C73.4193 61.543 73.4526 61.6161 73.4526 61.6893V71.4136H77.9284C78.0147 71.4136 78.0877 71.4468 78.1541 71.5066C78.2139 71.5665 78.2471 71.6396 78.2471 71.7326V72.6432C78.2471 72.7297 78.2139 72.8028 78.1541 72.8692C78.0944 72.9291 78.0213 72.9623 77.9284 72.9623H72.0447C71.9584 72.9623 71.8853 72.9291 71.8189 72.8692C71.7591 72.8094 71.726 72.7363 71.726 72.6432ZM83.0417 72.6432V61.6959C83.0417 61.6095 83.0749 61.5364 83.1347 61.4699C83.1944 61.4035 83.2674 61.3769 83.3604 61.3769H89.9679C90.0543 61.3769 90.1273 61.4101 90.1937 61.4699C90.2535 61.5297 90.2867 61.6029 90.2867 61.6959V62.6198C90.2867 62.7062 90.2535 62.786 90.1937 62.8458C90.1339 62.9056 90.0609 62.9389 89.9679 62.9389H84.7484V66.3088H89.1578C89.2375 66.3088 89.3039 66.342 89.3703 66.4085C89.4367 66.475 89.4699 66.5481 89.4699 66.6212V67.5451C89.4699 67.6315 89.4367 67.7047 89.3769 67.7711C89.3171 67.8309 89.2441 67.8642 89.1511 67.8642H84.7417V71.4202H89.9613C90.0476 71.4202 90.1207 71.4535 90.1871 71.5133C90.2468 71.5731 90.28 71.6462 90.28 71.7393V72.6499C90.28 72.7363 90.2468 72.8094 90.1871 72.8759C90.1273 72.9357 90.0543 72.9689 89.9613 72.9689H83.3539C83.2675 72.9689 83.1944 72.9357 83.128 72.8759C83.0682 72.8161 83.035 72.743 83.035 72.6499L83.0417 72.6432ZM95.2008 71.819C95.0215 71.6662 94.9883 71.4867 95.1012 71.2873C95.1477 71.2208 95.2141 71.1078 95.3071 70.9483C95.4 70.7888 95.4731 70.6758 95.5328 70.6093C95.7121 70.3567 95.8981 70.3102 96.0973 70.4764C97.0137 71.2341 97.8903 71.6196 98.7403 71.6196C99.3047 71.6196 99.7563 71.4734 100.095 71.1743C100.434 70.8752 100.606 70.5163 100.606 70.0842C100.606 69.6123 100.407 69.1935 100.002 68.8413C99.5969 68.489 98.9727 68.1367 98.1094 67.7844C97.1399 67.379 96.3961 66.9137 95.8782 66.3886C95.3602 65.8635 95.1012 65.1656 95.1012 64.2815C95.1012 63.9425 95.1676 63.5969 95.3071 63.2579C95.4465 62.9189 95.6457 62.5866 95.918 62.2742C96.1902 61.9618 96.5622 61.7092 97.0469 61.5165C97.5317 61.3237 98.0894 61.2306 98.7137 61.2306C99.8227 61.2306 100.845 61.5563 101.768 62.2077C101.988 62.3539 102.021 62.5401 101.868 62.7727C101.822 62.8392 101.755 62.9455 101.662 63.0851C101.569 63.2313 101.503 63.331 101.456 63.3975C101.304 63.6501 101.111 63.7033 100.879 63.5637C99.909 63.012 99.1652 62.7395 98.6473 62.7395C98.0164 62.7395 97.5516 62.8923 97.2461 63.2047C96.9406 63.5171 96.7813 63.8561 96.7813 64.2283C96.7813 64.6803 96.954 65.0658 97.2926 65.3849C97.6313 65.7039 98.1625 66.0164 98.8797 66.3088C100.022 66.7741 100.905 67.2793 101.516 67.8243C102.127 68.3693 102.433 69.1005 102.433 70.0177C102.433 70.935 102.08 71.6263 101.383 72.2311C100.686 72.836 99.8028 73.1418 98.7469 73.1418C98.1426 73.1418 97.5516 73.0421 96.9871 72.8426C96.4226 72.6432 96.0176 72.4638 95.7785 72.2976C95.5395 72.1315 95.3469 71.9786 95.1942 71.8323L95.2008 71.819ZM107.141 71.819C106.961 71.6662 106.928 71.4867 107.041 71.2873C107.088 71.2208 107.154 71.1078 107.247 70.9483C107.34 70.7888 107.413 70.6758 107.473 70.6093C107.652 70.3567 107.838 70.3102 108.037 70.4764C108.954 71.2341 109.83 71.6196 110.68 71.6196C111.245 71.6196 111.696 71.4734 112.035 71.1743C112.374 70.8752 112.546 70.5163 112.546 70.0842C112.546 69.6123 112.347 69.1935 111.942 68.8413C111.537 68.489 110.913 68.1367 110.049 67.7844C109.08 67.379 108.336 66.9137 107.818 66.3886C107.3 65.8635 107.041 65.1656 107.041 64.2815C107.041 63.9425 107.108 63.5969 107.247 63.2579C107.386 62.9189 107.586 62.5866 107.858 62.2742C108.13 61.9618 108.502 61.7092 108.987 61.5165C109.472 61.3237 110.029 61.2306 110.654 61.2306C111.763 61.2306 112.785 61.5563 113.708 62.2077C113.928 62.3539 113.961 62.5401 113.808 62.7727C113.762 62.8392 113.695 62.9455 113.602 63.0851C113.509 63.2313 113.443 63.331 113.396 63.3975C113.244 63.6501 113.051 63.7033 112.819 63.5637C111.849 63.012 111.105 62.7395 110.587 62.7395C109.956 62.7395 109.492 62.8923 109.186 63.2047C108.881 63.5171 108.721 63.8561 108.721 64.2283C108.721 64.6803 108.894 65.0658 109.233 65.3849C109.571 65.7039 110.103 66.0164 110.82 66.3088C111.962 66.7741 112.845 67.2793 113.456 67.8243C114.067 68.3693 114.372 69.1005 114.372 70.0177C114.372 70.935 114.02 71.6263 113.323 72.2311C112.626 72.836 111.743 73.1418 110.687 73.1418C110.083 73.1418 109.492 73.0421 108.927 72.8426C108.363 72.6432 107.958 72.4638 107.718 72.2976C107.479 72.1315 107.287 71.9786 107.134 71.8323L107.141 71.819ZM126.432 72.6432V61.6959C126.432 61.6095 126.465 61.5364 126.525 61.4699C126.585 61.4101 126.658 61.3769 126.751 61.3769H133.358C133.444 61.3769 133.517 61.4101 133.584 61.4699C133.644 61.5297 133.677 61.6029 133.677 61.6959V62.6198C133.677 62.7062 133.644 62.786 133.584 62.8458C133.524 62.9056 133.451 62.9389 133.358 62.9389H128.139V66.3088H132.548C132.628 66.3088 132.694 66.342 132.76 66.4085C132.827 66.475 132.86 66.5481 132.86 66.6212V67.5451C132.86 67.6315 132.827 67.7047 132.767 67.7711C132.707 67.8309 132.634 67.8642 132.541 67.8642H128.132V71.4202H133.351C133.438 71.4202 133.511 71.4535 133.577 71.5133C133.637 71.5731 133.67 71.6462 133.67 71.7393V72.6499C133.67 72.7363 133.637 72.8094 133.577 72.8759C133.517 72.9424 133.444 72.9689 133.351 72.9689H126.744C126.658 72.9689 126.578 72.9357 126.518 72.8759C126.459 72.8161 126.425 72.743 126.425 72.6499L126.432 72.6432ZM139.235 72.6432V61.6959C139.235 61.6095 139.268 61.5364 139.328 61.4699C139.388 61.4101 139.461 61.3769 139.554 61.3769H140.643C140.729 61.3769 140.802 61.4101 140.869 61.4766C140.929 61.543 140.962 61.6161 140.962 61.6893V71.4136H145.438C145.524 71.4136 145.597 71.4468 145.663 71.5066C145.73 71.5665 145.756 71.6396 145.756 71.7326V72.6432C145.756 72.7297 145.723 72.8028 145.663 72.8692C145.604 72.9291 145.531 72.9623 145.438 72.9623H139.554C139.468 72.9623 139.388 72.9291 139.328 72.8692C139.268 72.8094 139.235 72.7363 139.235 72.6432ZM150.551 72.6432V61.6959C150.551 61.6095 150.584 61.5364 150.644 61.4699C150.704 61.4101 150.777 61.3769 150.87 61.3769H157.477C157.563 61.3769 157.636 61.4101 157.703 61.4699C157.763 61.5297 157.796 61.6029 157.796 61.6959V62.6198C157.796 62.7062 157.763 62.786 157.703 62.8458C157.643 62.9056 157.57 62.9389 157.477 62.9389H152.257V66.3088H156.667C156.747 66.3088 156.813 66.342 156.879 66.4085C156.946 66.475 156.979 66.5481 156.979 66.6212V67.5451C156.979 67.6315 156.946 67.7047 156.886 67.7711C156.826 67.8309 156.753 67.8642 156.66 67.8642H152.251V71.4202H157.47C157.557 71.4202 157.63 71.4535 157.696 71.5133C157.756 71.5731 157.789 71.6462 157.789 71.7393V72.6499C157.789 72.7363 157.756 72.8094 157.696 72.8759C157.636 72.9424 157.563 72.9689 157.47 72.9689H150.863C150.777 72.9689 150.697 72.9357 150.637 72.8759C150.577 72.8161 150.544 72.743 150.544 72.6499L150.551 72.6432ZM164.197 71.3936C163.042 70.2437 162.464 68.8413 162.464 67.1862C162.464 65.5311 163.042 64.122 164.204 62.9588C165.366 61.7956 166.767 61.2173 168.408 61.2173C169.882 61.2173 171.223 61.7291 172.419 62.7528C172.585 62.9189 172.591 63.0718 172.432 63.218C172.352 63.3045 172.233 63.4374 172.067 63.6035C171.901 63.7764 171.774 63.9027 171.688 63.9891C171.569 64.122 171.423 64.1154 171.257 63.9758C170.4 63.2247 169.464 62.8525 168.447 62.8525C167.292 62.8525 166.309 63.2779 165.506 64.1286C164.702 64.9794 164.297 65.9831 164.297 67.153C164.297 68.3228 164.702 69.3265 165.506 70.1706C166.309 71.0148 167.292 71.4335 168.447 71.4335C168.633 71.4335 168.819 71.4269 168.999 71.4069C169.178 71.387 169.351 71.3671 169.503 71.3338C169.656 71.3006 169.802 71.2674 169.942 71.2341C170.081 71.2009 170.207 71.161 170.32 71.1211C170.433 71.0746 170.533 71.0414 170.599 71.0148C170.672 70.9882 170.739 70.955 170.805 70.9217C170.871 70.8885 170.911 70.8752 170.918 70.8752V69.0207H169.298C169.211 69.0207 169.132 68.9941 169.072 68.941C169.012 68.8878 168.979 68.8147 168.979 68.7283V67.7711C168.979 67.5651 169.085 67.4587 169.291 67.4587H172.299C172.379 67.4587 172.445 67.492 172.505 67.5518C172.565 67.6116 172.598 67.6847 172.598 67.7778C172.598 68.2165 172.598 68.8878 172.605 69.7785C172.605 70.6691 172.611 71.3405 172.611 71.7792C172.611 71.8922 172.565 71.9786 172.478 72.045C172.346 72.1248 172.166 72.2245 171.934 72.3441C171.701 72.4638 171.23 72.63 170.513 72.8294C169.796 73.0354 169.085 73.1351 168.381 73.1351C166.728 73.1351 165.326 72.5568 164.171 71.4069L164.197 71.3936ZM177.034 72.9557C176.914 72.9557 176.821 72.9091 176.762 72.8227C176.702 72.7363 176.695 72.6366 176.755 72.5236L181.828 61.3968C181.895 61.2772 181.988 61.2173 182.107 61.2173H182.273C182.393 61.2173 182.486 61.2772 182.552 61.3968L187.593 72.5236C187.646 72.6366 187.646 72.7296 187.586 72.8227C187.526 72.9091 187.433 72.9557 187.314 72.9557H186.271C186.092 72.9557 185.966 72.8759 185.893 72.7097L184.87 70.4431H179.471C179.358 70.6957 179.192 71.0746 178.966 71.5731C178.741 72.0716 178.575 72.4505 178.462 72.7031C178.395 72.8692 178.269 72.949 178.083 72.949H177.041L177.034 72.9557ZM180.109 69.0207H184.239L182.207 64.4876H182.127L180.115 69.0207H180.109ZM192.314 72.6432V61.5165C192.314 61.4367 192.347 61.3702 192.407 61.3104C192.467 61.2506 192.54 61.2173 192.633 61.2173H193.045L200.217 69.5192H200.23V61.6959C200.23 61.6095 200.263 61.5364 200.323 61.4699C200.383 61.4035 200.456 61.3769 200.549 61.3769H201.604C201.684 61.3769 201.75 61.4101 201.817 61.4766C201.883 61.543 201.917 61.6161 201.917 61.6893V72.8161C201.917 72.8958 201.883 72.9623 201.824 73.0221C201.764 73.0819 201.691 73.1152 201.598 73.1152H201.166L193.994 64.5806H193.981V72.63C193.981 72.7164 193.948 72.7895 193.888 72.8559C193.828 72.9224 193.755 72.949 193.662 72.949H192.62C192.533 72.949 192.454 72.9158 192.394 72.8493C192.334 72.7828 192.301 72.7097 192.301 72.6366L192.314 72.6432ZM209.089 71.3936C207.926 70.2437 207.349 68.8413 207.349 67.1862C207.349 65.5311 207.926 64.122 209.089 62.9588C210.251 61.7956 211.658 61.2173 213.312 61.2173C214.799 61.2173 216.128 61.7291 217.31 62.7528C217.476 62.9056 217.482 63.0585 217.323 63.218L216.599 63.9625C216.48 64.1154 216.34 64.1154 216.187 63.9625C215.337 63.2247 214.388 62.8525 213.332 62.8525C212.163 62.8525 211.18 63.2779 210.383 64.1286C209.587 64.9794 209.188 65.9831 209.188 67.153C209.188 68.3228 209.593 69.3265 210.397 70.1706C211.2 71.0148 212.183 71.4335 213.352 71.4335C214.301 71.4335 215.244 71.0679 216.194 70.3434C216.34 70.2305 216.466 70.2304 216.592 70.3301L217.349 71.0746C217.416 71.1411 217.442 71.2142 217.442 71.3006C217.442 71.3804 217.403 71.4601 217.336 71.5266C216.234 72.5967 214.899 73.1285 213.325 73.1285C211.672 73.1285 210.264 72.5502 209.102 71.4003L209.089 71.3936ZM222.755 72.6432V61.6959C222.755 61.6095 222.788 61.5364 222.848 61.4699C222.908 61.4101 222.981 61.3769 223.074 61.3769H229.681C229.768 61.3769 229.841 61.4101 229.907 61.4699C229.967 61.5297 230 61.6029 230 61.6959V62.6198C230 62.7062 229.967 62.786 229.907 62.8458C229.847 62.9056 229.774 62.9389 229.681 62.9389H224.462V66.3088H228.871C228.951 66.3088 229.017 66.342 229.084 66.4085C229.15 66.475 229.183 66.5481 229.183 66.6212V67.5451C229.183 67.6315 229.15 67.7047 229.09 67.7711C229.03 67.8309 228.957 67.8642 228.864 67.8642H224.455V71.4202H229.675C229.761 71.4202 229.834 71.4535 229.9 71.5133C229.96 71.5731 229.993 71.6462 229.993 71.7393V72.6499C229.993 72.7363 229.96 72.8094 229.9 72.8759C229.841 72.9424 229.768 72.9689 229.675 72.9689H223.067C222.981 72.9689 222.901 72.9357 222.841 72.8759C222.782 72.8161 222.748 72.743 222.748 72.6499L222.755 72.6432Z" fill="#F1F1F1"/>
</svg>