<svg xmlns="http://www.w3.org/2000/svg" width="64" height="100" viewBox="0 0 64 100" fill="none">
  <path fill-rule="evenodd" clip-rule="evenodd" d="M12.2014 33.9317C14.0769 40.6835 27.2053 38.0578 29.5713 39.5582C26.859 40.8566 18.4338 42.2416 14.9714 42.0396C14.8848 42.1261 14.7983 42.155 14.7694 42.2993C14.7694 42.4435 14.5963 42.5012 14.5674 42.5301C9.34493 47.7814 17.799 47.2621 21.4634 47.5795C19.6168 49.3395 18.4049 48.2431 15.3465 49.3684C10.8165 51.0419 11.105 49.253 8.27734 50.5514C8.59473 51.7632 7.20976 51.9364 12.6919 52.8597C16.9046 53.5522 28.3306 54.0715 31.9373 53.4944C35.5728 52.9174 39.5835 51.8498 43.0747 51.0996C47.4316 50.1763 50.4613 50.1186 51.9905 46.5407H49.4514L50.2593 44.6941L45.0368 44.521C45.989 43.2514 46.7969 42.8186 47.5759 41.1451C43.7095 41.3182 39.1218 43.7131 35.0535 44.0593C31.7353 44.3479 21.7808 44.8672 19.5591 43.5977C24.5219 42.5301 29.8887 43.0783 34.8803 41.8953C37.0443 41.3759 39.1507 40.5969 41.2281 39.7313C42.3823 39.2408 43.2479 38.8657 44.2289 38.2598L46.7103 35.8938C45.383 36.0669 44.2866 36.6151 43.1613 36.4997C39.2084 36.038 45.3542 36.0092 41.0839 35.5187L32.6875 35.2878L39.4392 32.7776C37.6791 31.5946 24.9547 34.4222 19.4148 34.8262C15.7216 35.1147 15.3176 34.3645 12.2303 33.9606" fill="#E6DED1"/>
  <path fill-rule="evenodd" clip-rule="evenodd" d="M31.5353 60.1594C32.8048 61.4289 33.0068 61.6886 34.7092 62.4677C32.8625 63.9969 27.5246 64.1412 23.5428 65.2088C25.7646 66.536 30.208 66.1032 32.8625 66.9688L8.19273 69.2771C5.5959 69.5079 1.64296 69.0751 0.142578 70.3447C3.51845 73.3166 10.1259 71.672 15.0022 71.672C22.1867 71.672 19.0705 72.6241 27.2938 71.4411C29.8041 71.0949 29.6309 70.6044 30.2369 72.1625L26.6302 72.9992C30.612 74.5573 41.4897 73.0569 45.9621 72.5664C53.7525 71.7297 53.2332 72.0182 57.59 69.4502C58.8885 68.7 60.0137 68.8732 61.3987 68.123C59.4078 67.2285 38.4601 70.6909 33.4396 70.6909C35.0843 69.306 36.8155 69.6522 39.2969 68.9886C40.1048 68.7577 41.0569 68.4981 41.9803 68.1807L44.6348 66.536L39.268 66.4206C42.7882 66.3629 43.1344 64.0835 49.8573 63.4487C53.3486 63.1313 61.1102 63.6507 63.0434 62.1503C62.4374 57.6203 56.9264 59.2072 49.0205 59.5823C43.221 59.842 37.3637 59.9574 31.5064 60.2171" fill="#E6DED1"/>
  <path fill-rule="evenodd" clip-rule="evenodd" d="M27.1749 3.49128C28.0694 5.56874 29.714 10.4161 29.8006 12.7821C29.1658 12.0319 28.9061 12.0896 28.1271 10.9066L26.771 8.62722C26.771 8.62722 26.6267 8.42524 26.5401 8.30983C26.7421 11.4549 27.7808 11.8588 28.1271 14.5711C27.5789 14.8019 27.0018 14.8307 26.4824 15.0327C26.367 15.0616 26.2228 15.1193 26.0785 15.177C25.9631 15.2347 25.8188 15.2924 25.7034 15.3212C25.588 15.3501 25.4149 15.4655 25.3283 15.4944C25.2417 15.5232 25.0686 15.5809 24.9821 15.6675L26.6556 18.5528C25.1552 18.524 24.001 18.3509 22.6161 18.1777C22.1544 18.12 21.4908 18.0046 20.9425 18.0623C17.7398 18.3509 22.7603 17.6007 20.1635 18.2355L19.4133 18.524C21.5196 22.9674 27.348 19.5627 29.4544 24.0927L21.058 23.7753C21.0868 26.2568 22.1544 26.5453 24.6647 27.1224C24.607 27.2378 24.4338 27.2378 24.405 27.4109L22.7892 29.5461C21.8082 30.2385 19.471 29.8346 17.9995 29.9212C17.9418 32.316 17.307 32.6911 19.4422 33.1816C20.1635 33.3547 23.0777 33.095 23.9433 32.9796C26.8575 32.6045 28.4156 31.6812 31.0413 31.133C33.5227 30.6136 36.3215 30.3251 38.8895 29.95C44.689 29.0844 44.1985 29.9789 46.5068 28.7959C46.5934 28.767 46.7376 28.6516 46.8531 28.565C46.3337 28.2765 46.7665 28.3342 45.5258 28.0457C44.6025 27.8148 44.4871 27.8437 43.5638 27.8148C42.2076 27.7571 41.3132 27.8725 39.8416 27.7283C39.8705 26.5741 41.7171 25.218 42.9578 24.439C45.1796 23.0252 46.074 24.2081 47.0262 21.5536C43.6503 20.1398 40.7361 25.9394 31.4164 26.6896C31.5318 26.603 31.6761 26.3433 31.7338 26.4299L35.1674 24.6698C36.6389 24.0639 37.9373 23.3425 39.4377 22.8232C39.2646 22.7943 38.6298 22.6501 38.5144 22.6212C37.5622 22.1884 38.1681 22.5346 37.5045 22.0153C38.399 21.4382 40.2744 20.1975 40.3899 18.8991C40.6495 15.6386 38.2258 18.4951 35.3116 18.2355C36.5235 15.8983 37.5334 16.1003 36.1772 13.4458C33.9267 14.2825 35.0519 14.6576 33.0899 15.8695L31.4453 15.0616C32.2532 12.3782 33.3496 13.4169 33.5227 10.5893L31.301 11.3106C32.5128 9.17544 34.0998 5.30906 33.6093 2.71224C31.301 4.27033 32.3397 5.48218 30.0891 6.49205C30.7239 3.77982 30.4931 2.22172 29.4832 0C29.0216 1.09644 29.4255 1.32726 28.8773 2.27943L27.2326 3.46243L27.1749 3.49128Z" fill="#E6DED1"/>
  <path fill-rule="evenodd" clip-rule="evenodd" d="M7.24105 73.3456C8.42405 74.8171 9.08768 74.7017 11.0209 75.0191C12.5501 75.2499 13.7042 75.7116 14.9738 76.1732C23.803 79.376 34.9693 75.5384 43.5388 76.1732C42.1827 76.8946 28.5061 79.6645 25.967 80.0973C18.2054 81.4246 14.6853 81.7131 6.4043 82.0305C6.8371 82.4921 6.63512 82.3767 7.32761 82.7807L10.7612 83.8771C12.5213 84.2522 14.1371 84.5407 15.9837 84.6273C19.6192 84.7716 45.5009 85.1467 46.1934 80.9052L46.0491 80.155C51.9352 78.4238 61.3415 78.1064 62.0051 72.1049C59.6103 72.1049 58.5138 72.9416 56.3787 73.4033C54.1569 73.8649 51.9064 73.5475 49.3384 73.8938C44.8661 74.5286 40.2495 74.6151 35.5464 74.6151C30.9298 74.6151 25.6208 74.8748 21.0908 74.4131C17.0513 74.0092 11.396 73.5187 7.2699 73.3744" fill="#E6DED1"/>
  <path fill-rule="evenodd" clip-rule="evenodd" d="M16.6172 87.7725C18.5792 92.0429 25.1867 88.5804 28.88 89.3018C34.3333 90.3982 27.8124 97.3519 33.7851 99.4294C34.9681 96.2843 34.0159 94.9282 33.6697 91.7832L41.5467 91.6389C40.9119 89.8211 40.2483 89.7346 40.1329 87.8014C45.7882 86.9358 56.262 86.6761 57.6181 79.9821C50.6933 81.6556 48.6158 83.1271 38.5748 85.118C31.1594 86.5607 24.3499 86.9935 16.6172 87.7437" fill="#E6DED1"/>
  <path fill-rule="evenodd" clip-rule="evenodd" d="M2.19027 53.7829C3.37327 55.2545 4.0369 55.1391 5.97008 55.4564C7.49932 55.6873 8.65347 56.1489 9.92303 56.6106C18.7522 59.8133 29.9185 55.9758 38.4881 56.6106C37.1319 57.3319 23.4553 60.1019 20.9162 60.5347C13.1546 61.8619 9.63449 62.1505 1.35352 62.4679C1.78632 62.9295 1.58434 62.8141 2.27683 63.2181L5.7104 64.3145C7.47047 64.6896 9.08627 64.9781 10.9329 65.0647C14.5684 65.209 40.4501 65.5841 41.1426 61.3426L40.9983 60.5924C46.8844 58.8612 56.2907 58.5438 56.9543 52.5422C54.5595 52.5422 53.4631 53.379 51.3279 53.8406C49.1062 54.3023 46.8556 53.9849 44.2876 54.3312C39.8153 54.9659 35.1987 55.0525 30.4956 55.0525C25.879 55.0525 20.57 55.3122 16.04 54.8505C12.0005 54.4466 6.34518 53.9561 2.21912 53.8118" fill="#E6DED1"/>
</svg>