<svg width="55" height="20" viewBox="0 0 55 20" fill="none" xmlns="http://www.w3.org/2000/svg">
<path id="&#226;&#134;&#146;" d="M48.8509 19.1291L47.1397 17.4179C46.972 17.2502 46.972 17.0488 47.1397 16.8811L53.6823 10.3385C54.1521 9.86874 54.1521 9.39901 53.6823 8.92928L47.1397 2.38666C46.972 2.2189 46.972 2.01759 47.1397 1.84983L48.8509 0.138686C49.0522 -0.0626247 49.2535 -0.0290733 49.4213 0.138686L54.6889 5.40633C54.8902 5.60765 54.9573 5.77541 54.9573 6.07737V13.1904C54.9573 13.4923 54.8902 13.6601 54.6889 13.8614L49.4213 19.1291C49.2535 19.2968 49.0522 19.3304 48.8509 19.1291ZM0.402623 11.2444C0.167759 11.2444 0 11.0766 0 10.8417V8.39245C0 8.15759 0.167759 7.98983 0.402623 7.98983H51.6357C51.8705 7.98983 52.0383 8.15759 52.0383 8.39245V10.8417C52.0383 11.0766 51.8705 11.2444 51.6357 11.2444H0.402623Z" fill="#929292"/>
</svg>
