<svg width="233" height="188" viewBox="0 0 233 188" fill="none" xmlns="http://www.w3.org/2000/svg">
<path d="M3.04107 156.526C2.79617 156.409 2.66728 156.268 2.65439 156.1C2.6415 155.933 2.63506 155.829 2.63506 155.791C2.63506 155.469 2.74461 154.972 2.96373 154.302C3.20863 153.555 3.61464 152.465 4.18176 151.035C6.84983 144.229 9.36323 138.667 11.722 134.35C11.9411 133.95 12.1215 133.602 12.2633 133.306C12.418 132.996 12.4953 132.822 12.4953 132.784C12.4953 132.616 12.4438 132.526 12.3406 132.513C12.2375 132.487 12.1473 132.474 12.07 132.474C11.9153 132.474 11.6962 132.5 11.4126 132.552C9.72413 132.861 7.89386 133.26 5.92181 133.75C3.94976 134.227 2.53839 134.627 1.6877 134.949C1.39125 135.052 1.13991 135.104 0.933678 135.104C0.547001 135.104 0.353662 134.904 0.353662 134.504C0.353662 134.208 0.508333 133.963 0.817675 133.77C1.11413 133.563 1.69414 133.331 2.55772 133.074C4.64577 132.468 7.10117 131.894 9.92391 131.353C12.7467 130.799 15.3309 130.393 17.6768 130.135C18.8368 130.019 19.8551 129.935 20.7315 129.883C21.6209 129.832 22.6134 129.806 23.7089 129.806C24.8819 129.806 25.7197 129.832 26.2223 129.883C26.7379 129.935 27.1375 130.038 27.421 130.193C27.7046 130.347 27.8786 130.521 27.9431 130.715C28.0204 130.895 28.0591 131.037 28.0591 131.14C28.0591 131.295 28.0139 131.443 27.9237 131.585C27.8593 131.701 27.7497 131.759 27.595 131.759C27.4404 131.759 27.2406 131.694 26.9957 131.566C26.7121 131.398 26.3448 131.295 25.8937 131.256C25.4554 131.218 24.985 131.198 24.4823 131.198C24.1085 131.198 23.6832 131.205 23.2063 131.218C22.1751 131.243 21.0409 131.308 19.8035 131.411C18.579 131.501 17.4834 131.611 16.5168 131.74C15.5629 131.856 14.9765 131.959 14.7574 132.049C14.6671 132.088 14.5963 132.158 14.5447 132.262C14.4931 132.352 14.4416 132.494 14.39 132.687C14.3385 132.842 14.2418 133.08 14.1 133.402C13.9582 133.712 13.7971 134.034 13.6167 134.369C13.1398 135.258 12.5082 136.496 11.722 138.081C10.9357 139.654 10.3106 140.923 9.84658 141.89C8.84122 144.068 7.76497 146.543 6.61783 149.314C5.47069 152.072 4.70378 154.057 4.3171 155.269C4.12376 155.9 3.9562 156.287 3.81442 156.429C3.67264 156.571 3.54375 156.642 3.42774 156.642C3.31174 156.642 3.18285 156.603 3.04107 156.526ZM9.85508 152.601C9.7133 152.536 9.5973 152.44 9.50708 152.311C9.40396 152.169 9.3524 152.027 9.3524 151.885C9.3524 151.512 10.5189 148.908 12.8518 144.075C14.9012 139.834 16.6735 136.489 18.1686 134.04C18.3749 133.705 18.5811 133.364 18.7873 133.016C19.0064 132.655 19.174 132.365 19.29 132.146C19.5607 131.682 19.7733 131.372 19.928 131.218C20.0827 131.05 20.2567 130.966 20.45 130.966C20.7594 130.966 20.9592 131.069 21.0494 131.276C21.1396 131.482 21.1847 131.656 21.1847 131.798C21.1847 131.978 21.146 132.165 21.0687 132.358C21.03 132.448 20.9076 132.674 20.7014 133.035C20.508 133.396 20.276 133.808 20.0054 134.272C18.5489 136.734 17.1955 139.17 15.9452 141.58C15.3781 142.663 14.8303 143.739 14.3019 144.809C13.7734 145.866 13.3416 146.755 13.0065 147.477C12.6843 148.186 12.5232 148.586 12.5232 148.676V148.695C12.536 148.721 12.5554 148.747 12.5812 148.773C12.6198 148.798 12.6585 148.811 12.6972 148.811C12.7229 148.811 12.8583 148.728 13.1032 148.56C13.361 148.38 13.6574 148.167 13.9925 147.922C14.9206 147.213 15.7519 146.601 16.4866 146.085C17.2213 145.557 17.7175 145.222 17.9753 145.08C18.2717 144.951 18.5231 144.887 18.7293 144.887C19.0773 144.887 19.3093 145.067 19.4253 145.428C19.4511 145.505 19.464 145.589 19.464 145.679C19.464 145.808 19.4447 145.95 19.406 146.105C19.3287 146.375 19.174 146.775 18.942 147.303C18.8389 147.535 18.7487 147.767 18.6713 147.999C18.6069 148.218 18.5618 148.392 18.536 148.521V148.908C18.5618 148.985 18.6262 149.069 18.7293 149.159C18.7938 149.224 18.8582 149.269 18.9227 149.295C18.9871 149.32 19.0773 149.34 19.1933 149.353C19.3222 149.353 19.5091 149.353 19.754 149.353H19.8313C20.4887 149.353 21.2556 149.192 22.1321 148.869C23.0472 148.534 24.3812 147.922 26.1342 147.033C26.8689 146.672 27.4875 146.375 27.9902 146.143C28.4929 145.911 28.7765 145.795 28.8409 145.795C28.9956 145.795 29.1438 145.866 29.2856 146.008C29.4274 146.15 29.4983 146.298 29.4983 146.453C29.4983 146.659 29.35 146.878 29.0536 147.11C28.7571 147.329 28.19 147.658 27.3522 148.096C24.0655 149.888 21.6294 150.783 20.044 150.783C19.6445 150.783 19.3029 150.725 19.0193 150.609C18.6198 150.48 18.2524 150.223 17.9173 149.836C17.5951 149.436 17.3759 148.992 17.2599 148.502C17.2342 148.386 17.2084 148.276 17.1826 148.173C17.1568 148.057 17.1375 147.973 17.1246 147.922C17.0988 147.793 17.0279 147.729 16.9119 147.729C16.7573 147.729 16.5059 147.857 16.1579 148.115C15.7584 148.412 15.2106 148.844 14.5145 149.411C13.8185 149.978 13.1096 150.564 12.3878 151.17C12.0527 151.454 11.7434 151.711 11.4598 151.943C11.1762 152.175 10.9893 152.324 10.8991 152.388C10.7187 152.504 10.564 152.575 10.4351 152.601C10.2933 152.627 10.1838 152.639 10.1064 152.639C10.0162 152.639 9.93242 152.627 9.85508 152.601ZM30.3188 151.673C29.3521 151.402 28.669 150.835 28.2694 149.971C28.0761 149.61 27.9794 149.23 27.9794 148.831C27.9794 148.354 28.1147 147.851 28.3854 147.323C28.6819 146.73 29.1201 146.117 29.7001 145.486C30.2801 144.841 30.8215 144.371 31.3242 144.075C31.5948 143.933 31.8526 143.862 32.0975 143.862C32.3166 143.862 32.5229 143.92 32.7162 144.036C33.1286 144.268 33.3993 144.693 33.5282 145.312C33.5411 145.389 33.5475 145.473 33.5475 145.563C33.5475 145.769 33.5153 146.001 33.4509 146.259C33.3735 146.607 33.2446 146.917 33.0642 147.187C32.51 148.051 31.6722 148.483 30.5508 148.483C30.1512 148.483 29.8677 148.515 29.7001 148.579C29.5326 148.644 29.4101 148.766 29.3328 148.947C29.2554 149.14 29.2168 149.308 29.2168 149.449C29.2168 149.784 29.3972 150.036 29.7581 150.203C30.2221 150.358 30.7699 150.435 31.4015 150.435C32.9869 150.435 35.1007 149.939 37.743 148.947C38.6195 148.599 39.5926 148.167 40.6624 147.651C41.7322 147.123 42.686 146.639 43.5238 146.201C43.73 146.111 43.904 146.066 44.0458 146.066C44.1747 146.066 44.2843 146.105 44.3745 146.182C44.5421 146.337 44.6258 146.536 44.6258 146.781V146.839C44.6129 147.11 44.5034 147.31 44.2972 147.439C43.6398 147.812 42.8407 148.238 41.8998 148.715C40.9717 149.179 40.0566 149.604 39.1544 149.991C38.4197 150.3 37.6012 150.603 36.699 150.899C35.8096 151.183 35.0427 151.396 34.3982 151.537C33.6635 151.692 33.0642 151.776 32.6002 151.789C32.1362 151.802 31.8397 151.808 31.7108 151.808C31.1308 151.808 30.6668 151.763 30.3188 151.673ZM31.5175 146.588C31.5819 146.536 31.6464 146.472 31.7108 146.395C31.7753 146.304 31.8333 146.221 31.8848 146.143C31.9364 146.053 31.9622 145.982 31.9622 145.931C31.9622 145.879 31.9364 145.853 31.8848 145.853C31.8591 145.853 31.8204 145.866 31.7688 145.892C31.6399 145.943 31.5046 146.034 31.3628 146.163C31.1695 146.356 31.0728 146.511 31.0728 146.627V146.665C31.0857 146.704 31.1179 146.723 31.1695 146.723C31.2468 146.723 31.3628 146.678 31.5175 146.588ZM79.7531 156.99C78.954 156.706 78.4384 156.139 78.2064 155.288C78.1419 155.121 78.0968 154.908 78.0711 154.65C78.0582 154.379 78.0517 154.012 78.0517 153.548C78.0646 151.679 78.4384 149.192 79.1731 146.085C79.302 145.583 79.3986 145.164 79.4631 144.829C79.5275 144.493 79.5598 144.287 79.5598 144.21V144.171C79.5469 144.133 79.5211 144.1 79.4824 144.075C79.4438 144.049 79.4115 144.036 79.3858 144.036C79.2826 144.036 78.7413 144.558 77.7617 145.602C76.7821 146.633 75.6028 147.915 74.2236 149.449C72.8574 150.983 71.4847 152.549 70.1055 154.147C69.2548 155.153 68.6233 155.829 68.2108 156.177C67.7983 156.513 67.4052 156.68 67.0314 156.68C66.9025 156.68 66.793 156.661 66.7028 156.622C66.6125 156.584 66.5159 156.519 66.4128 156.429C66.1034 156.184 65.9487 155.842 65.9487 155.404C65.9487 155.262 65.9681 155.101 66.0067 154.921C66.2516 153.632 67.2248 150.886 68.9262 146.685C69.5964 145.035 70.112 143.759 70.4729 142.856C70.8338 141.954 71.1238 141.226 71.3429 140.672C71.5749 140.105 71.8133 139.499 72.0582 138.854C73.4503 135.245 74.1463 132.79 74.1463 131.488C74.1463 130.998 74.0496 130.67 73.8563 130.502C73.7016 130.373 73.4889 130.309 73.2183 130.309C72.9734 130.309 72.6834 130.36 72.3482 130.463C71.6264 130.67 70.7951 131.082 69.8542 131.701C67.4439 133.351 64.9627 135.639 62.4106 138.564C59.8715 141.49 58.1636 144.01 57.2872 146.124C57.1583 146.446 57.0423 146.652 56.9392 146.743C56.8361 146.833 56.7265 146.878 56.6105 146.878C56.5589 146.878 56.5009 146.871 56.4365 146.859C56.0885 146.73 55.9145 146.395 55.9145 145.853V145.795C56.0047 144.932 56.7974 143.449 58.2925 141.348C59.9681 139.041 61.7533 136.947 63.648 135.065C65.5556 133.17 67.3021 131.701 68.8875 130.657C70.4857 129.6 71.7553 129.071 72.6962 129.071C72.7865 129.071 72.8703 129.078 72.9476 129.091C73.9401 129.258 74.6812 129.8 75.171 130.715C75.2612 130.882 75.3257 131.024 75.3643 131.14C75.403 131.256 75.4223 131.398 75.4223 131.566C75.4352 131.733 75.4417 131.984 75.4417 132.32C75.4417 132.745 75.4223 133.099 75.3837 133.383C75.3579 133.654 75.2999 133.982 75.2096 134.369C74.7714 136.341 73.2054 140.685 70.5115 147.4C70.0346 148.573 69.6415 149.54 69.3322 150.3C69.0357 151.06 68.8101 151.653 68.6555 152.079C68.5008 152.504 68.4106 152.781 68.3848 152.91C68.359 153.039 68.3461 153.129 68.3461 153.181C68.3461 153.232 68.359 153.265 68.3848 153.277C68.3977 153.29 68.4106 153.297 68.4235 153.297C68.475 153.297 68.5395 153.271 68.6168 153.219C68.6813 153.181 68.7521 153.129 68.8295 153.065C68.9068 153 68.9713 152.936 69.0228 152.871C69.1904 152.678 69.6995 152.111 70.5502 151.17C71.4138 150.216 72.3547 149.185 73.3729 148.077C74.4041 146.955 75.2483 146.047 75.9057 145.351C78.7155 142.373 80.3396 140.794 80.7778 140.614C80.9067 140.575 81.0291 140.556 81.1451 140.556C81.4029 140.556 81.6349 140.652 81.8412 140.846C81.9958 140.975 82.0861 141.097 82.1118 141.213C82.1376 141.316 82.1505 141.4 82.1505 141.464C82.1505 141.632 82.1183 141.851 82.0538 142.122C81.9765 142.508 81.8283 143.101 81.6091 143.901C81.1451 145.615 80.7907 147 80.5458 148.057C80.3138 149.114 80.1076 150.203 79.9271 151.325C79.8498 151.802 79.7918 152.298 79.7531 152.813C79.7273 153.316 79.7144 153.761 79.7144 154.147V154.515C79.7273 155.005 79.766 155.327 79.8304 155.481C79.9078 155.701 80.0367 155.81 80.2171 155.81C80.5007 155.81 80.9196 155.539 81.4738 154.998C82.1183 154.418 82.8465 153.593 83.6585 152.523C84.4706 151.454 85.7273 149.675 87.4286 147.187C93.4092 138.5 98.1976 132.081 101.794 127.931C102.142 127.544 102.412 127.254 102.606 127.061C102.812 126.855 102.986 126.719 103.128 126.655C103.269 126.577 103.411 126.539 103.553 126.539C103.94 126.552 104.133 126.758 104.133 127.157C104.133 127.235 104.12 127.312 104.094 127.389C104.069 127.454 104.004 127.551 103.901 127.679C103.811 127.808 103.656 128.002 103.437 128.259C103.218 128.517 102.915 128.872 102.528 129.323C99.2545 133.112 94.479 139.57 88.202 148.695C86.2944 151.492 84.8572 153.477 83.8905 154.65C82.9367 155.81 82.1376 156.532 81.4931 156.816C81.2225 156.957 80.9776 157.041 80.7585 157.067C80.5522 157.08 80.404 157.086 80.3138 157.086C80.1076 157.086 79.9207 157.054 79.7531 156.99ZM94.7067 151.673C93.74 151.402 93.0568 150.835 92.6573 149.971C92.4639 149.61 92.3673 149.23 92.3673 148.831C92.3673 148.354 92.5026 147.851 92.7733 147.323C93.0697 146.73 93.508 146.117 94.088 145.486C94.668 144.841 95.2093 144.371 95.712 144.075C95.9827 143.933 96.2405 143.862 96.4854 143.862C96.7045 143.862 96.9107 143.92 97.1041 144.036C97.5165 144.268 97.7872 144.693 97.9161 145.312C97.929 145.389 97.9354 145.473 97.9354 145.563C97.9354 145.769 97.9032 146.001 97.8387 146.259C97.7614 146.607 97.6325 146.917 97.4521 147.187C96.8978 148.051 96.06 148.483 94.9387 148.483C94.5391 148.483 94.2555 148.515 94.088 148.579C93.9204 148.644 93.798 148.766 93.7206 148.947C93.6433 149.14 93.6046 149.308 93.6046 149.449C93.6046 149.784 93.7851 150.036 94.146 150.203C94.61 150.358 95.1578 150.435 95.7894 150.435C97.3747 150.435 99.4886 149.939 102.131 148.947C103.007 148.599 103.98 148.167 105.05 147.651C106.12 147.123 107.074 146.639 107.912 146.201C108.118 146.111 108.292 146.066 108.434 146.066C108.563 146.066 108.672 146.105 108.762 146.182C108.93 146.337 109.014 146.536 109.014 146.781V146.839C109.001 147.11 108.891 147.31 108.685 147.439C108.028 147.812 107.229 148.238 106.288 148.715C105.36 149.179 104.444 149.604 103.542 149.991C102.808 150.3 101.989 150.603 101.087 150.899C100.197 151.183 99.4306 151.396 98.7861 151.537C98.0514 151.692 97.4521 151.776 96.9881 151.789C96.524 151.802 96.2276 151.808 96.0987 151.808C95.5187 151.808 95.0547 151.763 94.7067 151.673ZM95.9054 146.588C95.9698 146.536 96.0343 146.472 96.0987 146.395C96.1632 146.304 96.2212 146.221 96.2727 146.143C96.3243 146.053 96.35 145.982 96.35 145.931C96.35 145.879 96.3243 145.853 96.2727 145.853C96.2469 145.853 96.2083 145.866 96.1567 145.892C96.0278 145.943 95.8925 146.034 95.7507 146.163C95.5574 146.356 95.4607 146.511 95.4607 146.627V146.665C95.4736 146.704 95.5058 146.723 95.5574 146.723C95.6347 146.723 95.7507 146.678 95.9054 146.588ZM105.233 158.227C105.001 158.15 104.814 158.053 104.672 157.937C104.517 157.834 104.376 157.692 104.247 157.512C104.092 157.292 103.989 157.067 103.937 156.835C103.873 156.603 103.841 156.403 103.841 156.235C103.841 156.145 103.847 156.061 103.86 155.984C104.208 154.205 106.535 152.066 110.84 149.565C111.291 149.32 111.516 149.121 111.516 148.966C111.516 148.811 111.291 148.702 110.84 148.637C110.208 148.534 109.738 148.373 109.428 148.154C109.119 147.935 108.913 147.632 108.81 147.245C108.758 147.078 108.732 146.917 108.732 146.762C108.732 146.491 108.816 146.227 108.984 145.969C109.254 145.57 109.789 145.106 110.588 144.577C111.671 143.881 112.38 143.533 112.715 143.533C112.947 143.533 113.14 143.61 113.295 143.765C113.463 143.907 113.546 144.087 113.546 144.307C113.546 144.41 113.533 144.513 113.508 144.616C113.482 144.719 113.45 144.796 113.411 144.848C113.359 144.912 113.218 145.035 112.986 145.215C112.754 145.383 112.477 145.576 112.154 145.795C111.407 146.272 111.02 146.562 110.994 146.665C110.981 146.755 110.975 146.807 110.975 146.82C110.975 147 111.239 147.142 111.768 147.245C111.922 147.297 112.116 147.361 112.348 147.439C112.58 147.516 112.786 147.6 112.966 147.69C113.327 147.857 113.591 147.941 113.759 147.941C113.798 147.941 113.83 147.935 113.856 147.922C113.933 147.909 114.107 147.845 114.378 147.729C114.661 147.613 114.983 147.477 115.344 147.323C116.195 146.949 116.988 146.639 117.722 146.395C118.47 146.15 119.031 146.008 119.404 145.969C119.52 145.956 119.617 145.95 119.694 145.95C119.772 145.95 119.836 145.956 119.888 145.969C119.991 145.995 120.088 146.047 120.178 146.124C120.32 146.253 120.391 146.362 120.391 146.453C120.403 146.543 120.41 146.594 120.41 146.607C120.41 146.762 120.345 146.897 120.217 147.013C120.152 147.065 119.997 147.142 119.752 147.245C119.508 147.348 119.224 147.451 118.902 147.555C118.27 147.748 117.561 148.006 116.775 148.328C116.002 148.65 115.435 148.908 115.074 149.101C114.739 149.295 114.571 149.572 114.571 149.933C114.571 149.997 114.577 150.068 114.59 150.145C114.603 150.223 114.61 150.3 114.61 150.377C114.61 150.558 114.584 150.758 114.532 150.977C114.455 151.312 114.339 151.634 114.184 151.943C113.514 153.168 112.399 154.425 110.84 155.713C109.28 156.99 107.849 157.827 106.547 158.227C106.251 158.304 106.006 158.343 105.813 158.343C105.619 158.343 105.426 158.304 105.233 158.227ZM106.161 156.506C106.986 156.223 108.023 155.604 109.274 154.65C110.537 153.683 111.542 152.743 112.29 151.827C112.805 151.144 113.063 150.693 113.063 150.474C113.063 150.358 113.005 150.3 112.889 150.3C112.721 150.3 112.438 150.403 112.038 150.609C109.847 151.86 108.081 153.129 106.741 154.418C105.8 155.346 105.329 155.991 105.329 156.351C105.329 156.455 105.362 156.532 105.426 156.584C105.465 156.622 105.497 156.648 105.523 156.661C105.549 156.661 105.568 156.661 105.581 156.661C105.619 156.661 105.665 156.654 105.716 156.642C105.806 156.629 105.948 156.59 106.141 156.526C106.154 156.526 106.161 156.519 106.161 156.506ZM120.206 147.129C120.541 145.827 121.192 144.216 122.158 142.296C122.39 141.832 122.584 141.419 122.738 141.058C122.906 140.698 122.99 140.491 122.99 140.44C122.99 140.35 122.964 140.279 122.912 140.227C122.861 140.176 122.745 140.15 122.564 140.15C122.371 140.15 122.075 140.182 121.675 140.246C121.288 140.298 120.766 140.382 120.109 140.498C119.439 140.601 118.601 140.749 117.596 140.942C117.402 140.968 117.254 140.981 117.151 140.981C117.035 140.981 116.932 140.955 116.842 140.904C116.545 140.736 116.397 140.53 116.397 140.285C116.397 140.246 116.403 140.201 116.416 140.15C116.468 139.84 116.7 139.621 117.112 139.492C117.409 139.415 117.976 139.305 118.814 139.164C119.651 139.022 120.599 138.867 121.656 138.7C121.72 138.687 121.778 138.674 121.83 138.661C122.384 138.584 122.816 138.519 123.125 138.468C123.434 138.416 123.66 138.377 123.802 138.352C123.956 138.313 124.066 138.281 124.13 138.255C124.195 138.216 124.253 138.171 124.304 138.12C124.317 138.107 124.33 138.1 124.343 138.1C124.472 137.984 124.646 137.752 124.865 137.404C125.097 137.056 125.316 136.695 125.522 136.322C125.729 135.948 125.87 135.651 125.948 135.432C125.986 135.278 126.038 135.136 126.102 135.007C126.18 134.878 126.251 134.781 126.315 134.717C126.47 134.588 126.631 134.524 126.799 134.524C126.902 134.524 127.011 134.549 127.127 134.601C127.424 134.756 127.604 135.02 127.669 135.394V135.471C127.669 135.6 127.649 135.729 127.611 135.858C127.572 136.012 127.462 136.27 127.282 136.631C127.114 136.94 126.998 137.172 126.934 137.327C126.882 137.469 126.857 137.578 126.857 137.656C126.857 137.681 126.863 137.707 126.876 137.733C126.889 137.81 126.947 137.862 127.05 137.888C127.089 137.901 127.166 137.907 127.282 137.907C127.411 137.907 127.578 137.901 127.785 137.888C128.21 137.862 128.751 137.823 129.409 137.772C132.283 137.514 134.867 137.379 137.161 137.366C137.741 137.366 138.186 137.372 138.495 137.385C138.818 137.385 139.056 137.398 139.211 137.424C139.378 137.437 139.52 137.462 139.636 137.501C139.997 137.643 140.216 137.797 140.294 137.965C140.384 138.12 140.429 138.242 140.429 138.332C140.429 138.461 140.371 138.584 140.255 138.7C140.19 138.751 140.12 138.79 140.042 138.816C139.978 138.829 139.888 138.835 139.772 138.835H139.578C139.359 138.835 139.024 138.816 138.573 138.777C138.367 138.764 138.122 138.758 137.838 138.758C137 138.758 135.853 138.803 134.397 138.893C132.476 138.996 130.633 139.138 128.867 139.318C127.101 139.486 126.044 139.641 125.696 139.782C125.593 139.834 125.477 139.937 125.348 140.092C125.232 140.234 125.078 140.472 124.884 140.807C124.691 141.142 124.433 141.613 124.111 142.218C122.977 144.371 122.184 146.163 121.733 147.593C121.449 148.483 121.308 149.192 121.308 149.72C121.308 150.197 121.43 150.513 121.675 150.667C121.817 150.758 122.004 150.803 122.236 150.803C122.803 150.803 123.621 150.519 124.691 149.952C125.671 149.462 127.024 148.676 128.751 147.593C129.46 147.142 130.001 146.807 130.375 146.588C130.749 146.369 131.026 146.227 131.207 146.163C131.387 146.098 131.548 146.066 131.69 146.066C132.012 146.066 132.206 146.137 132.27 146.279C132.334 146.42 132.367 146.53 132.367 146.607C132.367 146.762 132.296 146.923 132.154 147.091C131.793 147.413 130.259 148.405 127.553 150.068C126.844 150.506 126.193 150.874 125.6 151.17C124.466 151.698 123.486 151.963 122.661 151.963C122.017 151.963 121.462 151.802 120.998 151.479C120.289 150.99 119.935 150.184 119.935 149.063C119.935 148.496 120.025 147.851 120.206 147.129ZM167.629 156.99C166.83 156.706 166.315 156.139 166.083 155.288C166.018 155.121 165.973 154.908 165.947 154.65C165.934 154.379 165.928 154.012 165.928 153.548C165.941 151.679 166.315 149.192 167.049 146.085C167.178 145.583 167.275 145.164 167.339 144.829C167.404 144.493 167.436 144.287 167.436 144.21V144.171C167.423 144.133 167.397 144.1 167.359 144.075C167.32 144.049 167.288 144.036 167.262 144.036C167.159 144.036 166.617 144.558 165.638 145.602C164.658 146.633 163.479 147.915 162.1 149.449C160.734 150.983 159.361 152.549 157.982 154.147C157.131 155.153 156.499 155.829 156.087 156.177C155.675 156.513 155.281 156.68 154.908 156.68C154.779 156.68 154.669 156.661 154.579 156.622C154.489 156.584 154.392 156.519 154.289 156.429C153.98 156.184 153.825 155.842 153.825 155.404C153.825 155.262 153.844 155.101 153.883 154.921C154.128 153.632 155.101 150.886 156.802 146.685C157.473 145.035 157.988 143.759 158.349 142.856C158.71 141.954 159 141.226 159.219 140.672C159.451 140.105 159.69 139.499 159.934 138.854C161.326 135.245 162.022 132.79 162.022 131.488C162.022 130.998 161.926 130.67 161.732 130.502C161.578 130.373 161.365 130.309 161.094 130.309C160.85 130.309 160.56 130.36 160.224 130.463C159.503 130.67 158.671 131.082 157.73 131.701C155.32 133.351 152.839 135.639 150.287 138.564C147.748 141.49 146.04 144.01 145.163 146.124C145.034 146.446 144.918 146.652 144.815 146.743C144.712 146.833 144.603 146.878 144.487 146.878C144.435 146.878 144.377 146.871 144.313 146.859C143.965 146.73 143.791 146.395 143.791 145.853V145.795C143.881 144.932 144.674 143.449 146.169 141.348C147.844 139.041 149.629 136.947 151.524 135.065C153.432 133.17 155.178 131.701 156.764 130.657C158.362 129.6 159.632 129.071 160.572 129.071C160.663 129.071 160.746 129.078 160.824 129.091C161.816 129.258 162.557 129.8 163.047 130.715C163.137 130.882 163.202 131.024 163.24 131.14C163.279 131.256 163.298 131.398 163.298 131.566C163.311 131.733 163.318 131.984 163.318 132.32C163.318 132.745 163.298 133.099 163.26 133.383C163.234 133.654 163.176 133.982 163.086 134.369C162.648 136.341 161.082 140.685 158.388 147.4C157.911 148.573 157.518 149.54 157.208 150.3C156.912 151.06 156.686 151.653 156.532 152.079C156.377 152.504 156.287 152.781 156.261 152.91C156.235 153.039 156.222 153.129 156.222 153.181C156.222 153.232 156.235 153.265 156.261 153.277C156.274 153.29 156.287 153.297 156.3 153.297C156.351 153.297 156.416 153.271 156.493 153.219C156.557 153.181 156.628 153.129 156.706 153.065C156.783 153 156.847 152.936 156.899 152.871C157.067 152.678 157.576 152.111 158.426 151.17C159.29 150.216 160.231 149.185 161.249 148.077C162.28 146.955 163.124 146.047 163.782 145.351C166.592 142.373 168.216 140.794 168.654 140.614C168.783 140.575 168.905 140.556 169.021 140.556C169.279 140.556 169.511 140.652 169.717 140.846C169.872 140.975 169.962 141.097 169.988 141.213C170.014 141.316 170.027 141.4 170.027 141.464C170.027 141.632 169.994 141.851 169.93 142.122C169.853 142.508 169.704 143.101 169.485 143.901C169.021 145.615 168.667 147 168.422 148.057C168.19 149.114 167.984 150.203 167.803 151.325C167.726 151.802 167.668 152.298 167.629 152.813C167.603 153.316 167.591 153.761 167.591 154.147V154.515C167.603 155.005 167.642 155.327 167.707 155.481C167.784 155.701 167.913 155.81 168.093 155.81C168.377 155.81 168.796 155.539 169.35 154.998C169.994 154.418 170.723 153.593 171.535 152.523C172.347 151.454 173.603 149.675 175.305 147.187C181.285 138.5 186.074 132.081 189.67 127.931C190.018 127.544 190.289 127.254 190.482 127.061C190.688 126.855 190.862 126.719 191.004 126.655C191.146 126.577 191.287 126.539 191.429 126.539C191.816 126.552 192.009 126.758 192.009 127.157C192.009 127.235 191.996 127.312 191.971 127.389C191.945 127.454 191.88 127.551 191.777 127.679C191.687 127.808 191.532 128.002 191.313 128.259C191.094 128.517 190.791 128.872 190.405 129.323C187.131 133.112 182.355 139.57 176.078 148.695C174.171 151.492 172.733 153.477 171.767 154.65C170.813 155.81 170.014 156.532 169.369 156.816C169.099 156.957 168.854 157.041 168.635 157.067C168.428 157.08 168.28 157.086 168.19 157.086C167.984 157.086 167.797 157.054 167.629 156.99ZM183.936 143.224C183.833 143.095 183.782 142.972 183.782 142.856C183.782 142.74 183.84 142.56 183.956 142.315C184.149 141.916 184.336 141.671 184.516 141.58C184.697 141.49 184.832 141.445 184.922 141.445C185.077 141.445 185.219 141.51 185.348 141.638C185.464 141.767 185.522 141.916 185.522 142.083C185.522 142.392 185.341 142.747 184.98 143.146C184.761 143.353 184.561 143.456 184.381 143.456C184.226 143.456 184.078 143.378 183.936 143.224ZM181.887 151.847C181.59 151.744 181.294 151.55 180.997 151.267C180.701 150.97 180.495 150.667 180.379 150.358C180.289 150.113 180.243 149.849 180.243 149.565C180.243 148.882 180.488 148.096 180.978 147.207C181.365 146.459 181.668 145.976 181.887 145.757C182.119 145.537 182.331 145.428 182.525 145.428C182.589 145.428 182.66 145.441 182.737 145.467C183.086 145.595 183.26 145.873 183.26 146.298C183.26 146.44 183.221 146.601 183.144 146.781C183.079 146.949 182.95 147.2 182.757 147.535C182.241 148.463 181.932 149.082 181.829 149.391C181.726 149.701 181.674 149.926 181.674 150.068C181.674 150.248 181.732 150.384 181.848 150.474C181.9 150.538 181.951 150.584 182.003 150.609C182.054 150.635 182.132 150.648 182.235 150.648C182.338 150.648 182.493 150.642 182.699 150.629C183.434 150.59 184.368 150.358 185.502 149.933C186.649 149.507 188.306 148.779 190.471 147.748C191.335 147.323 192.089 146.955 192.733 146.646C193.39 146.337 193.79 146.156 193.932 146.105C194.138 146.04 194.318 146.008 194.473 146.008C194.873 146.008 195.072 146.214 195.072 146.627C195.072 146.755 195.053 146.859 195.014 146.936C194.976 147.013 194.905 147.097 194.802 147.187C194.647 147.29 194.132 147.567 193.255 148.019C192.379 148.457 191.418 148.927 190.374 149.43C189.343 149.933 188.505 150.326 187.861 150.609C185.734 151.524 184.072 151.982 182.873 151.982C182.499 151.982 182.17 151.937 181.887 151.847ZM193.341 150.88C193.109 150.674 192.993 150.442 192.993 150.184C192.993 150.132 192.999 150.081 193.012 150.029C193.064 149.707 193.296 149.192 193.708 148.483C194.031 147.928 194.495 147.2 195.1 146.298C195.706 145.396 196.293 144.558 196.86 143.785C197.427 142.998 197.82 142.496 198.039 142.276C198.207 142.135 198.374 142.064 198.542 142.064C198.619 142.064 198.69 142.077 198.754 142.102C198.999 142.18 199.154 142.367 199.218 142.663C199.231 142.702 199.238 142.74 199.238 142.779C199.238 142.869 199.218 142.972 199.18 143.088C199.128 143.243 199.012 143.462 198.832 143.746C198.664 144.017 198.406 144.39 198.058 144.867C197.427 145.744 196.995 146.356 196.763 146.704C196.531 147.052 196.415 147.265 196.415 147.342C196.415 147.432 196.447 147.477 196.512 147.477C196.589 147.477 196.744 147.4 196.976 147.245C197.208 147.078 197.562 146.82 198.039 146.472C198.671 145.995 199.148 145.647 199.47 145.428C199.805 145.196 200.05 145.048 200.204 144.983C200.359 144.919 200.501 144.887 200.63 144.887C201.081 144.887 201.377 145.106 201.519 145.544C201.545 145.634 201.558 145.737 201.558 145.853V145.969C201.545 146.137 201.493 146.407 201.403 146.781C201.326 147.116 201.268 147.361 201.229 147.516C201.203 147.671 201.19 147.799 201.19 147.903V147.98C201.203 148.083 201.229 148.18 201.268 148.27C201.397 148.502 201.706 148.618 202.196 148.618C202.312 148.618 202.447 148.612 202.602 148.599C203.388 148.508 204.361 148.27 205.521 147.883C206.681 147.497 207.835 147.026 208.982 146.472C209.446 146.253 209.807 146.143 210.065 146.143C210.155 146.143 210.232 146.156 210.297 146.182C210.516 146.272 210.625 146.42 210.625 146.627V146.723C210.6 146.981 210.439 147.213 210.142 147.419C209.304 147.948 208.131 148.476 206.623 149.005C205.128 149.533 203.897 149.849 202.931 149.952H202.737C201.332 149.952 200.411 149.288 199.972 147.961C199.895 147.69 199.818 147.516 199.74 147.439C199.676 147.361 199.599 147.323 199.508 147.323C199.47 147.323 199.431 147.329 199.392 147.342C199.238 147.355 198.039 148.264 195.796 150.068C195.397 150.377 195.087 150.616 194.868 150.783C194.636 150.938 194.462 151.041 194.346 151.093C194.217 151.144 194.082 151.17 193.94 151.17C193.811 151.17 193.708 151.151 193.631 151.112C193.541 151.06 193.444 150.983 193.341 150.88ZM212.065 158.053C211.846 157.898 211.691 157.686 211.601 157.415C211.51 157.144 211.459 156.751 211.446 156.235V155.887C211.446 155.462 211.478 155.017 211.543 154.553C211.62 153.948 211.781 153.155 212.026 152.175C212.103 151.866 212.161 151.615 212.2 151.421C212.252 151.228 212.284 151.086 212.297 150.996C212.31 150.893 212.31 150.816 212.297 150.764C212.297 150.712 212.277 150.674 212.239 150.648C212.213 150.609 212.187 150.59 212.161 150.59C212.136 150.577 212.11 150.571 212.084 150.571C212.045 150.571 212 150.577 211.949 150.59C211.871 150.616 211.755 150.667 211.601 150.745C211.253 150.874 210.937 150.938 210.653 150.938C210.228 150.938 209.867 150.79 209.571 150.493C209.261 150.184 209.107 149.765 209.107 149.237C209.107 148.966 209.145 148.67 209.223 148.347C209.403 147.767 209.719 147.129 210.17 146.433C210.608 145.724 211.021 145.202 211.407 144.867C211.936 144.403 212.516 144.171 213.147 144.171C213.354 144.171 213.56 144.197 213.766 144.249C213.985 144.287 214.159 144.307 214.288 144.307H214.385C214.539 144.281 214.675 144.191 214.791 144.036C214.907 143.868 215.055 143.598 215.235 143.224C217.981 137.888 221.216 133.976 224.941 131.488C226.333 130.586 227.525 130.096 228.518 130.019H228.769C228.924 130.019 229.046 130.025 229.136 130.038C229.278 130.064 229.439 130.115 229.62 130.193C230.316 130.541 230.722 131.134 230.838 131.972V132.049C230.838 133.763 229.265 136.225 226.12 139.434C224.522 141.02 222.898 142.412 221.248 143.61C219.611 144.796 218.245 145.583 217.149 145.969C216.763 146.085 216.473 146.214 216.279 146.356C216.086 146.485 215.88 146.71 215.661 147.033C215.467 147.303 215.274 147.664 215.081 148.115C214.887 148.566 214.636 149.275 214.327 150.242C213.399 153.052 212.935 155.23 212.935 156.777V156.893C212.935 157.318 212.922 157.608 212.896 157.763C212.883 157.93 212.851 158.034 212.799 158.072C212.696 158.175 212.587 158.227 212.471 158.227C212.342 158.227 212.206 158.169 212.065 158.053ZM217.671 144.113C217.981 143.946 218.451 143.649 219.083 143.224C219.727 142.786 220.288 142.392 220.765 142.044C224.077 139.492 226.597 136.979 228.324 134.504C229.149 133.267 229.562 132.41 229.562 131.933C229.562 131.856 229.549 131.785 229.523 131.72C229.497 131.643 229.465 131.591 229.426 131.566C229.401 131.54 229.349 131.527 229.272 131.527C229.194 131.527 229.085 131.533 228.943 131.546C228.608 131.572 228.195 131.701 227.706 131.933C224.122 133.712 220.784 137.23 217.691 142.489C217.459 142.914 217.278 143.25 217.149 143.494C217.033 143.726 216.963 143.881 216.937 143.959C216.924 144.036 216.917 144.087 216.917 144.113C216.917 144.165 216.937 144.21 216.975 144.249C217.014 144.287 217.046 144.307 217.072 144.307C217.111 144.307 217.137 144.307 217.149 144.307C217.201 144.307 217.259 144.294 217.323 144.268C217.401 144.242 217.517 144.191 217.671 144.113ZM211.485 149.024C211.588 148.947 211.749 148.811 211.968 148.618C212.187 148.425 212.413 148.218 212.645 147.999C212.928 147.729 213.147 147.497 213.302 147.303C213.47 147.11 213.598 146.917 213.689 146.723C213.843 146.414 213.921 146.175 213.921 146.008C213.921 145.815 213.824 145.705 213.631 145.679H213.553C213.244 145.679 212.857 145.892 212.393 146.317C212.032 146.678 211.704 147.084 211.407 147.535C211.124 147.986 210.943 148.334 210.866 148.579C210.789 148.824 210.75 148.985 210.75 149.063C210.75 149.204 210.808 149.275 210.924 149.275C210.975 149.275 211.053 149.25 211.156 149.198C211.259 149.146 211.369 149.088 211.485 149.024Z" fill="#E6DED1"/>
<path d="M5.84255 182.453H4.27669L1.36247 172.304H2.78333L5.10312 180.655L7.56789 172.304H8.93076L11.3955 180.655L13.7153 172.304H15.1362L12.222 182.453H10.6561L8.24932 174.348L5.84255 182.453ZM23.2989 176.61V172.304H24.6328V182.453H23.2989V177.886H18.3694V182.453H17.021V172.304H18.3694V176.61H23.2989ZM28.5881 177.958V181.177H33.3002V182.453H27.2397V172.304H33.2277V173.58H28.5881V176.697H32.8652V177.958H28.5881ZM42.8732 182.453H41.3799L39.1036 178.567H36.7113V182.453H35.3629V172.304H39.4226C40.2925 172.304 41.0367 172.613 41.6553 173.232C42.274 173.841 42.5833 174.58 42.5833 175.45C42.5833 176.107 42.3851 176.707 41.9888 177.248C41.5829 177.799 41.0802 178.181 40.481 178.393L42.8732 182.453ZM39.4226 173.565H36.7113V177.349H39.4226C39.9252 177.349 40.3505 177.166 40.6984 176.798C41.0561 176.431 41.2349 175.982 41.2349 175.45C41.2349 174.918 41.0561 174.474 40.6984 174.116C40.3505 173.749 39.9252 173.565 39.4226 173.565ZM46.0097 177.958V181.177H50.7218V182.453H44.6613V172.304H50.6493V173.58H46.0097V176.697H50.2868V177.958H46.0097ZM60.1208 182.641C59.1736 182.641 58.3617 182.424 57.6851 181.989C57.0181 181.544 56.5493 180.931 56.2787 180.148L57.4386 179.481C57.8252 180.708 58.729 181.322 60.1498 181.322C60.8361 181.322 61.3629 181.182 61.7302 180.902C62.1072 180.621 62.2956 180.239 62.2956 179.756C62.2956 179.283 62.112 178.92 61.7447 178.669C61.4161 178.446 60.8023 178.19 59.9034 177.9L58.932 177.581C58.7193 177.494 58.439 177.369 58.091 177.204C57.7527 177.03 57.5063 176.856 57.3516 176.682C56.9263 176.218 56.7137 175.653 56.7137 174.986C56.7137 174.097 57.023 173.401 57.6416 172.898C58.2602 172.376 59.0141 172.115 59.9034 172.115C60.696 172.115 61.3919 172.313 61.9912 172.71C62.5904 173.106 63.0399 173.647 63.3395 174.334L62.2087 174.986C61.7737 173.942 61.0053 173.42 59.9034 173.42C59.3524 173.42 58.9078 173.556 58.5695 173.826C58.2312 174.097 58.062 174.464 58.062 174.928C58.062 175.373 58.2215 175.711 58.5405 175.943C58.8691 176.185 59.4201 176.426 60.1933 176.668L60.7878 176.856C61.1164 176.982 61.2952 177.05 61.3242 177.059C61.6335 177.175 61.9718 177.335 62.3391 177.538C62.6001 177.683 62.8611 177.905 63.1221 178.205C63.4604 178.543 63.6295 179.051 63.6295 179.727C63.6295 180.616 63.3057 181.327 62.6581 181.858C62.0008 182.38 61.1551 182.641 60.1208 182.641ZM66.9387 177.958V181.177H71.6508V182.453H65.5903V172.304H71.5783V173.58H66.9387V176.697H71.2158V177.958H66.9387ZM81.2239 182.453H79.7305L77.4542 178.567H75.0619V182.453H73.7136V172.304H77.7732C78.6431 172.304 79.3874 172.613 80.006 173.232C80.6246 173.841 80.9339 174.58 80.9339 175.45C80.9339 176.107 80.7357 176.707 80.3394 177.248C79.9335 177.799 79.4309 178.181 78.8316 178.393L81.2239 182.453ZM77.7732 173.565H75.0619V177.349H77.7732C78.2758 177.349 78.7011 177.166 79.0491 176.798C79.4067 176.431 79.5855 175.982 79.5855 175.45C79.5855 174.918 79.4067 174.474 79.0491 174.116C78.7011 173.749 78.2758 173.565 77.7732 173.565ZM84.3603 177.958V181.177H89.0724V182.453H83.0119V172.304H88.9999V173.58H84.3603V176.697H88.6374V177.958H84.3603ZM97.4421 179.872V172.304H98.7904V182.453H97.703L92.4835 174.87V182.453H91.1352V172.304H92.2225L97.4421 179.872ZM101.396 182.453V172.304H102.745V182.453H101.396ZM104.53 172.304H111.852V173.58H108.851V182.453H107.517V173.58H104.53V172.304ZM119.668 172.304H121.175L117.58 178.35V182.453H116.231V178.335L112.65 172.304H114.158L116.913 177.059L119.668 172.304ZM134.841 172.304H136.363V182.453H135.029V174.522L131.709 180.046H131.535L128.215 174.537V182.453H126.866V172.304H128.389L131.622 177.668L134.841 172.304ZM140.317 177.958V181.177H145.029V182.453H138.968V172.304H144.956V173.58H140.317V176.697H144.594V177.958H140.317ZM148.44 177.958V181.177H153.152V182.453H147.091V172.304H153.079V173.58H148.44V176.697H152.717V177.958H148.44ZM154.388 172.304H161.71V173.58H158.709V182.453H157.375V173.58H154.388V172.304ZM166.473 182.641C165.526 182.641 164.714 182.424 164.037 181.989C163.37 181.544 162.901 180.931 162.631 180.148L163.791 179.481C164.177 180.708 165.081 181.322 166.502 181.322C167.188 181.322 167.715 181.182 168.082 180.902C168.459 180.621 168.648 180.239 168.648 179.756C168.648 179.283 168.464 178.92 168.097 178.669C167.768 178.446 167.154 178.19 166.255 177.9L165.284 177.581C165.071 177.494 164.791 177.369 164.443 177.204C164.105 177.03 163.858 176.856 163.704 176.682C163.278 176.218 163.066 175.653 163.066 174.986C163.066 174.097 163.375 173.401 163.994 172.898C164.612 172.376 165.366 172.115 166.255 172.115C167.048 172.115 167.744 172.313 168.343 172.71C168.943 173.106 169.392 173.647 169.692 174.334L168.561 174.986C168.126 173.942 167.357 173.42 166.255 173.42C165.705 173.42 165.26 173.556 164.922 173.826C164.583 174.097 164.414 174.464 164.414 174.928C164.414 175.373 164.574 175.711 164.893 175.943C165.221 176.185 165.772 176.426 166.545 176.668L167.14 176.856C167.469 176.982 167.647 177.05 167.676 177.059C167.986 177.175 168.324 177.335 168.691 177.538C168.952 177.683 169.213 177.905 169.474 178.205C169.812 178.543 169.982 179.051 169.982 179.727C169.982 180.616 169.658 181.327 169.01 181.858C168.353 182.38 167.507 182.641 166.473 182.641ZM175.246 172.304H182.568V173.58H179.567V182.453H178.233V173.58H175.246V172.304ZM190.616 176.61V172.304H191.949V182.453H190.616V177.886H185.686V182.453H184.338V172.304H185.686V176.61H190.616ZM195.905 177.958V181.177H200.617V182.453H194.556V172.304H200.544V173.58H195.905V176.697H200.182V177.958H195.905ZM210.016 182.641C209.069 182.641 208.257 182.424 207.58 181.989C206.913 181.544 206.444 180.931 206.174 180.148L207.334 179.481C207.72 180.708 208.624 181.322 210.045 181.322C210.731 181.322 211.258 181.182 211.625 180.902C212.002 180.621 212.191 180.239 212.191 179.756C212.191 179.283 212.007 178.92 211.64 178.669C211.311 178.446 210.697 178.19 209.798 177.9L208.827 177.581C208.614 177.494 208.334 177.369 207.986 177.204C207.648 177.03 207.401 176.856 207.247 176.682C206.821 176.218 206.609 175.653 206.609 174.986C206.609 174.097 206.918 173.401 207.537 172.898C208.155 172.376 208.909 172.115 209.798 172.115C210.591 172.115 211.287 172.313 211.886 172.71C212.486 173.106 212.935 173.647 213.235 174.334L212.104 174.986C211.669 173.942 210.9 173.42 209.798 173.42C209.247 173.42 208.803 173.556 208.465 173.826C208.126 174.097 207.957 174.464 207.957 174.928C207.957 175.373 208.117 175.711 208.436 175.943C208.764 176.185 209.315 176.426 210.088 176.668L210.683 176.856C211.011 176.982 211.19 177.05 211.219 177.059C211.529 177.175 211.867 177.335 212.234 177.538C212.495 177.683 212.756 177.905 213.017 178.205C213.355 178.543 213.525 179.051 213.525 179.727C213.525 180.616 213.201 181.327 212.553 181.858C211.896 182.38 211.05 182.641 210.016 182.641ZM218.24 177.233L222.865 182.453H221.212L216.834 177.581V182.453H215.485V172.304H216.834V176.885L221.067 172.304H222.72L218.24 177.233ZM230.547 172.304H232.054L228.459 178.35V182.453H227.11V178.335L223.529 172.304H225.037L227.792 177.059L230.547 172.304Z" fill="#E6DED1"/>
<path fill-rule="evenodd" clip-rule="evenodd" d="M97.2014 33.9317C99.0769 40.6835 112.205 38.0578 114.571 39.5582C111.859 40.8566 103.434 42.2416 99.9714 42.0396C99.8848 42.1261 99.7983 42.155 99.7694 42.2993C99.7694 42.4435 99.5963 42.5012 99.5674 42.5301C94.3449 47.7814 102.799 47.2621 106.463 47.5795C104.617 49.3395 103.405 48.2431 100.346 49.3684C95.8165 51.0419 96.105 49.253 93.2773 50.5514C93.5947 51.7632 92.2098 51.9364 97.6919 52.8597C101.905 53.5522 113.331 54.0715 116.937 53.4944C120.573 52.9174 124.583 51.8498 128.075 51.0996C132.432 50.1763 135.461 50.1186 136.991 46.5407H134.451L135.259 44.6941L130.037 44.521C130.989 43.2514 131.797 42.8186 132.576 41.1451C128.71 41.3182 124.122 43.7131 120.053 44.0593C116.735 44.3479 106.781 44.8672 104.559 43.5977C109.522 42.5301 114.889 43.0783 119.88 41.8953C122.044 41.3759 124.151 40.5969 126.228 39.7313C127.382 39.2408 128.248 38.8657 129.229 38.2598L131.71 35.8938C130.383 36.0669 129.287 36.6151 128.161 36.4997C124.208 36.038 130.354 36.0092 126.084 35.5187L117.687 35.2878L124.439 32.7776C122.679 31.5946 109.955 34.4222 104.415 34.8262C100.722 35.1147 100.318 34.3645 97.2303 33.9606" fill="#E6DED1"/>
<path fill-rule="evenodd" clip-rule="evenodd" d="M116.535 60.1594C117.805 61.4289 118.007 61.6886 119.709 62.4677C117.863 63.9969 112.525 64.1412 108.543 65.2088C110.765 66.536 115.208 66.1032 117.863 66.9688L93.1927 69.2771C90.5959 69.5079 86.643 69.0751 85.1426 70.3447C88.5184 73.3166 95.1259 71.672 100.002 71.672C107.187 71.672 104.071 72.6241 112.294 71.4411C114.804 71.0949 114.631 70.6044 115.237 72.1625L111.63 72.9992C115.612 74.5573 126.49 73.0569 130.962 72.5664C138.753 71.7297 138.233 72.0182 142.59 69.4502C143.888 68.7 145.014 68.8732 146.399 68.123C144.408 67.2285 123.46 70.6909 118.44 70.6909C120.084 69.306 121.815 69.6522 124.297 68.9886C125.105 68.7577 126.057 68.4981 126.98 68.1807L129.635 66.536L124.268 66.4206C127.788 66.3629 128.134 64.0835 134.857 63.4487C138.349 63.1313 146.11 63.6507 148.043 62.1503C147.437 57.6203 141.926 59.2072 134.021 59.5823C128.221 59.842 122.364 59.9574 116.506 60.2171" fill="#E6DED1"/>
<path fill-rule="evenodd" clip-rule="evenodd" d="M112.175 3.49128C113.069 5.56874 114.714 10.4161 114.801 12.7821C114.166 12.0319 113.906 12.0896 113.127 10.9066L111.771 8.62722C111.771 8.62722 111.627 8.42524 111.54 8.30983C111.742 11.4549 112.781 11.8588 113.127 14.5711C112.579 14.8019 112.002 14.8307 111.482 15.0327C111.367 15.0616 111.223 15.1193 111.078 15.177C110.963 15.2347 110.819 15.2924 110.703 15.3212C110.588 15.3501 110.415 15.4655 110.328 15.4944C110.242 15.5232 110.069 15.5809 109.982 15.6675L111.656 18.5528C110.155 18.524 109.001 18.3509 107.616 18.1777C107.154 18.12 106.491 18.0046 105.943 18.0623C102.74 18.3509 107.76 17.6007 105.164 18.2355L104.413 18.524C106.52 22.9674 112.348 19.5627 114.454 24.0927L106.058 23.7753C106.087 26.2568 107.154 26.5453 109.665 27.1224C109.607 27.2378 109.434 27.2378 109.405 27.4109L107.789 29.5461C106.808 30.2385 104.471 29.8346 102.999 29.9212C102.942 32.316 102.307 32.6911 104.442 33.1816C105.164 33.3547 108.078 33.095 108.943 32.9796C111.858 32.6045 113.416 31.6812 116.041 31.133C118.523 30.6136 121.322 30.3251 123.889 29.95C129.689 29.0844 129.199 29.9789 131.507 28.7959C131.593 28.767 131.738 28.6516 131.853 28.565C131.334 28.2765 131.766 28.3342 130.526 28.0457C129.602 27.8148 129.487 27.8437 128.564 27.8148C127.208 27.7571 126.313 27.8725 124.842 27.7283C124.87 26.5741 126.717 25.218 127.958 24.439C130.18 23.0252 131.074 24.2081 132.026 21.5536C128.65 20.1398 125.736 25.9394 116.416 26.6896C116.532 26.603 116.676 26.3433 116.734 26.4299L120.167 24.6698C121.639 24.0639 122.937 23.3425 124.438 22.8232C124.265 22.7943 123.63 22.6501 123.514 22.6212C122.562 22.1884 123.168 22.5346 122.505 22.0153C123.399 21.4382 125.274 20.1975 125.39 18.8991C125.65 15.6386 123.226 18.4951 120.312 18.2355C121.523 15.8983 122.533 16.1003 121.177 13.4458C118.927 14.2825 120.052 14.6576 118.09 15.8695L116.445 15.0616C117.253 12.3782 118.35 13.4169 118.523 10.5893L116.301 11.3106C117.513 9.17544 119.1 5.30906 118.609 2.71224C116.301 4.27033 117.34 5.48218 115.089 6.49205C115.724 3.77982 115.493 2.22172 114.483 0C114.022 1.09644 114.425 1.32726 113.877 2.27943L112.233 3.46243L112.175 3.49128Z" fill="#E6DED1"/>
<path fill-rule="evenodd" clip-rule="evenodd" d="M92.2411 73.3456C93.424 74.8171 94.0877 74.7017 96.0209 75.0191C97.5501 75.2499 98.7042 75.7116 99.9738 76.1732C108.803 79.376 119.969 75.5384 128.539 76.1732C127.183 76.8946 113.506 79.6645 110.967 80.0973C103.205 81.4246 99.6853 81.7131 91.4043 82.0305C91.8371 82.4921 91.6351 82.3767 92.3276 82.7807L95.7612 83.8771C97.5213 84.2522 99.1371 84.5407 100.984 84.6273C104.619 84.7716 130.501 85.1467 131.193 80.9052L131.049 80.155C136.935 78.4238 146.341 78.1064 147.005 72.1049C144.61 72.1049 143.514 72.9416 141.379 73.4033C139.157 73.8649 136.906 73.5475 134.338 73.8938C129.866 74.5286 125.25 74.6151 120.546 74.6151C115.93 74.6151 110.621 74.8748 106.091 74.4131C102.051 74.0092 96.396 73.5187 92.2699 73.3744" fill="#E6DED1"/>
<path fill-rule="evenodd" clip-rule="evenodd" d="M101.617 87.7725C103.579 92.0429 110.187 88.5804 113.88 89.3018C119.333 90.3982 112.812 97.3519 118.785 99.4294C119.968 96.2843 119.016 94.9282 118.67 91.7832L126.547 91.6389C125.912 89.8211 125.248 89.7346 125.133 87.8014C130.788 86.9358 141.262 86.6761 142.618 79.9821C135.693 81.6556 133.616 83.1271 123.575 85.118C116.159 86.5607 109.35 86.9935 101.617 87.7437" fill="#E6DED1"/>
<path fill-rule="evenodd" clip-rule="evenodd" d="M87.1903 53.7829C88.3733 55.2545 89.0369 55.1391 90.9701 55.4564C92.4993 55.6873 93.6535 56.1489 94.923 56.6106C103.752 59.8133 114.919 55.9758 123.488 56.6106C122.132 57.3319 108.455 60.1019 105.916 60.5347C98.1546 61.8619 94.6345 62.1505 86.3535 62.4679C86.7863 62.9295 86.5843 62.8141 87.2768 63.2181L90.7104 64.3145C92.4705 64.6896 94.0863 64.9781 95.9329 65.0647C99.5684 65.209 125.45 65.5841 126.143 61.3426L125.998 60.5924C131.884 58.8612 141.291 58.5438 141.954 52.5422C139.559 52.5422 138.463 53.379 136.328 53.8406C134.106 54.3023 131.856 53.9849 129.288 54.3312C124.815 54.9659 120.199 55.0525 115.496 55.0525C110.879 55.0525 105.57 55.3122 101.04 54.8505C97.0005 54.4466 91.3452 53.9561 87.2191 53.8118" fill="#E6DED1"/>
</svg>
